G04 EAGLE Gerber RS-274X export*
G75*
%MOMM*%
%FSLAX34Y34*%
%LPD*%
%INBottom Copper*%
%IPPOS*%
%AMOC8*
5,1,8,0,0,1.08239X$1,22.5*%
G01*
%ADD10C,1.320800*%
%ADD11C,1.524000*%
%ADD12P,1.429621X8X292.500000*%
%ADD13P,1.429621X8X202.500000*%
%ADD14C,0.152400*%
%ADD15C,0.756400*%


D10*
X342900Y647446D02*
X342900Y660654D01*
X368300Y660654D02*
X368300Y647446D01*
X495300Y647446D02*
X495300Y660654D01*
X520700Y660654D02*
X520700Y647446D01*
X393700Y647446D02*
X393700Y660654D01*
X419100Y660654D02*
X419100Y647446D01*
X469900Y647446D02*
X469900Y660654D01*
X444500Y660654D02*
X444500Y647446D01*
X546100Y647446D02*
X546100Y660654D01*
X571500Y660654D02*
X571500Y647446D01*
X571500Y723646D02*
X571500Y736854D01*
X546100Y736854D02*
X546100Y723646D01*
X520700Y723646D02*
X520700Y736854D01*
X495300Y736854D02*
X495300Y723646D01*
X469900Y723646D02*
X469900Y736854D01*
X444500Y736854D02*
X444500Y723646D01*
X419100Y723646D02*
X419100Y736854D01*
X393700Y736854D02*
X393700Y723646D01*
X368300Y723646D02*
X368300Y736854D01*
X342900Y736854D02*
X342900Y723646D01*
X749300Y660654D02*
X749300Y647446D01*
X774700Y647446D02*
X774700Y660654D01*
X901700Y660654D02*
X901700Y647446D01*
X927100Y647446D02*
X927100Y660654D01*
X800100Y660654D02*
X800100Y647446D01*
X825500Y647446D02*
X825500Y660654D01*
X876300Y660654D02*
X876300Y647446D01*
X850900Y647446D02*
X850900Y660654D01*
X952500Y660654D02*
X952500Y647446D01*
X977900Y647446D02*
X977900Y660654D01*
X977900Y723646D02*
X977900Y736854D01*
X952500Y736854D02*
X952500Y723646D01*
X927100Y723646D02*
X927100Y736854D01*
X901700Y736854D02*
X901700Y723646D01*
X876300Y723646D02*
X876300Y736854D01*
X850900Y736854D02*
X850900Y723646D01*
X825500Y723646D02*
X825500Y736854D01*
X800100Y736854D02*
X800100Y723646D01*
X774700Y723646D02*
X774700Y736854D01*
X749300Y736854D02*
X749300Y723646D01*
D11*
X546100Y767080D02*
X546100Y782320D01*
X520700Y782320D02*
X520700Y767080D01*
X495300Y767080D02*
X495300Y782320D01*
X469900Y782320D02*
X469900Y767080D01*
X444500Y767080D02*
X444500Y782320D01*
X419100Y782320D02*
X419100Y767080D01*
X393700Y767080D02*
X393700Y782320D01*
X368300Y782320D02*
X368300Y767080D01*
X749300Y767080D02*
X749300Y782320D01*
X723900Y782320D02*
X723900Y767080D01*
X698500Y767080D02*
X698500Y782320D01*
X673100Y782320D02*
X673100Y767080D01*
X647700Y767080D02*
X647700Y782320D01*
X622300Y782320D02*
X622300Y767080D01*
X596900Y767080D02*
X596900Y782320D01*
X571500Y782320D02*
X571500Y767080D01*
X596900Y96520D02*
X596900Y81280D01*
X622300Y81280D02*
X622300Y96520D01*
X647700Y96520D02*
X647700Y81280D01*
X673100Y81280D02*
X673100Y96520D01*
X698500Y96520D02*
X698500Y81280D01*
X723900Y81280D02*
X723900Y96520D01*
X749300Y96520D02*
X749300Y81280D01*
X774700Y81280D02*
X774700Y96520D01*
D12*
X342900Y196850D03*
X342900Y120650D03*
X368300Y196850D03*
X368300Y120650D03*
X393700Y196850D03*
X393700Y120650D03*
X419100Y196850D03*
X419100Y120650D03*
X444500Y196850D03*
X444500Y120650D03*
X469900Y196850D03*
X469900Y120650D03*
X495300Y196850D03*
X495300Y120650D03*
X520700Y196850D03*
X520700Y120650D03*
X596900Y196850D03*
X596900Y120650D03*
X622300Y196850D03*
X622300Y120650D03*
X647700Y196850D03*
X647700Y120650D03*
X673100Y196850D03*
X673100Y120650D03*
X698500Y196850D03*
X698500Y120650D03*
X723900Y196850D03*
X723900Y120650D03*
X749300Y196850D03*
X749300Y120650D03*
X774700Y196850D03*
X774700Y120650D03*
D11*
X342900Y96520D02*
X342900Y81280D01*
X368300Y81280D02*
X368300Y96520D01*
X393700Y96520D02*
X393700Y81280D01*
X419100Y81280D02*
X419100Y96520D01*
X444500Y96520D02*
X444500Y81280D01*
X469900Y81280D02*
X469900Y96520D01*
X495300Y96520D02*
X495300Y81280D01*
X520700Y81280D02*
X520700Y96520D01*
D10*
X321056Y361950D02*
X321056Y375158D01*
X295656Y375158D02*
X295656Y361950D01*
X168656Y361950D02*
X168656Y375158D01*
X143256Y375158D02*
X143256Y361950D01*
X270256Y361950D02*
X270256Y375158D01*
X244856Y375158D02*
X244856Y361950D01*
X194056Y361950D02*
X194056Y375158D01*
X219456Y375158D02*
X219456Y361950D01*
X143256Y298958D02*
X143256Y285750D01*
X168656Y285750D02*
X168656Y298958D01*
X194056Y298958D02*
X194056Y285750D01*
X219456Y285750D02*
X219456Y298958D01*
X244856Y298958D02*
X244856Y285750D01*
X270256Y285750D02*
X270256Y298958D01*
X295656Y298958D02*
X295656Y285750D01*
X321056Y285750D02*
X321056Y298958D01*
X532892Y361950D02*
X532892Y375158D01*
X507492Y375158D02*
X507492Y361950D01*
X380492Y361950D02*
X380492Y375158D01*
X355092Y375158D02*
X355092Y361950D01*
X482092Y361950D02*
X482092Y375158D01*
X456692Y375158D02*
X456692Y361950D01*
X405892Y361950D02*
X405892Y375158D01*
X431292Y375158D02*
X431292Y361950D01*
X355092Y298958D02*
X355092Y285750D01*
X380492Y285750D02*
X380492Y298958D01*
X405892Y298958D02*
X405892Y285750D01*
X431292Y285750D02*
X431292Y298958D01*
X456692Y298958D02*
X456692Y285750D01*
X482092Y285750D02*
X482092Y298958D01*
X507492Y298958D02*
X507492Y285750D01*
X532892Y285750D02*
X532892Y298958D01*
X742950Y361696D02*
X742950Y374904D01*
X717550Y374904D02*
X717550Y361696D01*
X590550Y361696D02*
X590550Y374904D01*
X565150Y374904D02*
X565150Y361696D01*
X692150Y361696D02*
X692150Y374904D01*
X666750Y374904D02*
X666750Y361696D01*
X615950Y361696D02*
X615950Y374904D01*
X641350Y374904D02*
X641350Y361696D01*
X565150Y298704D02*
X565150Y285496D01*
X590550Y285496D02*
X590550Y298704D01*
X615950Y298704D02*
X615950Y285496D01*
X641350Y285496D02*
X641350Y298704D01*
X666750Y298704D02*
X666750Y285496D01*
X692150Y285496D02*
X692150Y298704D01*
X717550Y298704D02*
X717550Y285496D01*
X742950Y285496D02*
X742950Y298704D01*
X952500Y361696D02*
X952500Y374904D01*
X927100Y374904D02*
X927100Y361696D01*
X800100Y361696D02*
X800100Y374904D01*
X774700Y374904D02*
X774700Y361696D01*
X901700Y361696D02*
X901700Y374904D01*
X876300Y374904D02*
X876300Y361696D01*
X825500Y361696D02*
X825500Y374904D01*
X850900Y374904D02*
X850900Y361696D01*
X774700Y298704D02*
X774700Y285496D01*
X800100Y285496D02*
X800100Y298704D01*
X825500Y298704D02*
X825500Y285496D01*
X850900Y285496D02*
X850900Y298704D01*
X876300Y298704D02*
X876300Y285496D01*
X901700Y285496D02*
X901700Y298704D01*
X927100Y298704D02*
X927100Y285496D01*
X952500Y285496D02*
X952500Y298704D01*
X368300Y412496D02*
X368300Y425704D01*
X393700Y425704D02*
X393700Y412496D01*
X520700Y412496D02*
X520700Y425704D01*
X546100Y425704D02*
X546100Y412496D01*
X419100Y412496D02*
X419100Y425704D01*
X444500Y425704D02*
X444500Y412496D01*
X495300Y412496D02*
X495300Y425704D01*
X469900Y425704D02*
X469900Y412496D01*
X571500Y412496D02*
X571500Y425704D01*
X596900Y425704D02*
X596900Y412496D01*
X596900Y488696D02*
X596900Y501904D01*
X571500Y501904D02*
X571500Y488696D01*
X546100Y488696D02*
X546100Y501904D01*
X520700Y501904D02*
X520700Y488696D01*
X495300Y488696D02*
X495300Y501904D01*
X469900Y501904D02*
X469900Y488696D01*
X444500Y488696D02*
X444500Y501904D01*
X419100Y501904D02*
X419100Y488696D01*
X393700Y488696D02*
X393700Y501904D01*
X368300Y501904D02*
X368300Y488696D01*
X723900Y425704D02*
X723900Y412496D01*
X749300Y412496D02*
X749300Y425704D01*
X876300Y425704D02*
X876300Y412496D01*
X901700Y412496D02*
X901700Y425704D01*
X774700Y425704D02*
X774700Y412496D01*
X800100Y412496D02*
X800100Y425704D01*
X850900Y425704D02*
X850900Y412496D01*
X825500Y412496D02*
X825500Y425704D01*
X927100Y425704D02*
X927100Y412496D01*
X952500Y412496D02*
X952500Y425704D01*
X952500Y488696D02*
X952500Y501904D01*
X927100Y501904D02*
X927100Y488696D01*
X901700Y488696D02*
X901700Y501904D01*
X876300Y501904D02*
X876300Y488696D01*
X850900Y488696D02*
X850900Y501904D01*
X825500Y501904D02*
X825500Y488696D01*
X800100Y488696D02*
X800100Y501904D01*
X774700Y501904D02*
X774700Y488696D01*
X749300Y488696D02*
X749300Y501904D01*
X723900Y501904D02*
X723900Y488696D01*
X546100Y609346D02*
X546100Y622554D01*
X546100Y546354D02*
X546100Y533146D01*
X571500Y609346D02*
X571500Y622554D01*
X571500Y546354D02*
X571500Y533146D01*
X596900Y609346D02*
X596900Y622554D01*
X596900Y546354D02*
X596900Y533146D01*
X622300Y609346D02*
X622300Y622554D01*
X622300Y546354D02*
X622300Y533146D01*
X647700Y609346D02*
X647700Y622554D01*
X647700Y546354D02*
X647700Y533146D01*
X673100Y609346D02*
X673100Y622554D01*
X673100Y546354D02*
X673100Y533146D01*
X698500Y609346D02*
X698500Y622554D01*
X698500Y546354D02*
X698500Y533146D01*
X723900Y609346D02*
X723900Y622554D01*
X723900Y546354D02*
X723900Y533146D01*
X774700Y609346D02*
X774700Y622554D01*
X774700Y546354D02*
X774700Y533146D01*
X800100Y609346D02*
X800100Y622554D01*
X800100Y546354D02*
X800100Y533146D01*
X825500Y609346D02*
X825500Y622554D01*
X825500Y546354D02*
X825500Y533146D01*
X850900Y609346D02*
X850900Y622554D01*
X850900Y546354D02*
X850900Y533146D01*
X876300Y609346D02*
X876300Y622554D01*
X876300Y546354D02*
X876300Y533146D01*
X901700Y609346D02*
X901700Y622554D01*
X901700Y546354D02*
X901700Y533146D01*
X927100Y609346D02*
X927100Y622554D01*
X927100Y546354D02*
X927100Y533146D01*
X952500Y609346D02*
X952500Y622554D01*
X952500Y546354D02*
X952500Y533146D01*
D12*
X749300Y615950D03*
X749300Y539750D03*
D11*
X774700Y767080D02*
X774700Y782320D01*
X800100Y782320D02*
X800100Y767080D01*
X825500Y767080D02*
X825500Y782320D01*
X850900Y782320D02*
X850900Y767080D01*
X876300Y767080D02*
X876300Y782320D01*
X901700Y782320D02*
X901700Y767080D01*
X927100Y767080D02*
X927100Y782320D01*
D10*
X286004Y482600D02*
X272796Y482600D01*
X272796Y508000D02*
X286004Y508000D01*
X286004Y635000D02*
X272796Y635000D01*
X209804Y635000D02*
X196596Y635000D01*
X272796Y533400D02*
X286004Y533400D01*
X286004Y558800D02*
X272796Y558800D01*
X272796Y609600D02*
X286004Y609600D01*
X286004Y584200D02*
X272796Y584200D01*
X209804Y609600D02*
X196596Y609600D01*
X196596Y584200D02*
X209804Y584200D01*
X209804Y558800D02*
X196596Y558800D01*
X196596Y533400D02*
X209804Y533400D01*
X209804Y508000D02*
X196596Y508000D01*
X196596Y482600D02*
X209804Y482600D01*
X171704Y482600D02*
X158496Y482600D01*
X158496Y508000D02*
X171704Y508000D01*
X171704Y635000D02*
X158496Y635000D01*
X95504Y635000D02*
X82296Y635000D01*
X158496Y533400D02*
X171704Y533400D01*
X171704Y558800D02*
X158496Y558800D01*
X158496Y609600D02*
X171704Y609600D01*
X171704Y584200D02*
X158496Y584200D01*
X95504Y609600D02*
X82296Y609600D01*
X82296Y584200D02*
X95504Y584200D01*
X95504Y558800D02*
X82296Y558800D01*
X82296Y533400D02*
X95504Y533400D01*
X95504Y508000D02*
X82296Y508000D01*
X82296Y482600D02*
X95504Y482600D01*
D13*
X685800Y673100D03*
X609600Y673100D03*
X685800Y698500D03*
X609600Y698500D03*
X279400Y673100D03*
X203200Y673100D03*
X279400Y698500D03*
X203200Y698500D03*
X279400Y723900D03*
X203200Y723900D03*
X279400Y749300D03*
X203200Y749300D03*
D11*
X368300Y242570D02*
X368300Y227330D01*
X393700Y227330D02*
X393700Y242570D01*
X419100Y242570D02*
X419100Y227330D01*
X444500Y227330D02*
X444500Y242570D01*
X469900Y242570D02*
X469900Y227330D01*
X495300Y227330D02*
X495300Y242570D01*
X520700Y242570D02*
X520700Y227330D01*
X546100Y227330D02*
X546100Y242570D01*
X952500Y767080D02*
X952500Y782320D01*
X977900Y782320D02*
X977900Y767080D01*
D12*
X520700Y631825D03*
X520700Y555625D03*
X495300Y631825D03*
X495300Y555625D03*
X469900Y631825D03*
X469900Y555625D03*
X444500Y631825D03*
X444500Y555625D03*
X419100Y631825D03*
X419100Y555625D03*
X393700Y631825D03*
X393700Y555625D03*
X368300Y631825D03*
X368300Y555625D03*
X342900Y631825D03*
X342900Y555625D03*
D13*
X317500Y254000D03*
X292100Y254000D03*
D12*
X676402Y495046D03*
X676402Y469646D03*
X716280Y699262D03*
X716280Y673862D03*
X323342Y496316D03*
X323342Y470916D03*
D13*
X952500Y254000D03*
X927100Y254000D03*
D14*
X143256Y368554D02*
X143256Y612648D01*
X164592Y633984D01*
X165100Y635000D01*
X166116Y635508D02*
X202692Y672084D01*
X203200Y673100D01*
X166116Y635508D02*
X165100Y635000D01*
X394716Y632460D02*
X419100Y632460D01*
X419100Y631825D01*
X394716Y632460D02*
X393700Y631825D01*
X976884Y653796D02*
X976884Y443484D01*
X952500Y419100D01*
X976884Y653796D02*
X977900Y654050D01*
X749808Y653796D02*
X749808Y617220D01*
X749300Y615950D01*
X749808Y653796D02*
X749300Y654050D01*
X729996Y673608D02*
X716280Y673608D01*
X729996Y673608D02*
X748284Y655320D01*
X716280Y673608D02*
X716280Y673862D01*
X748284Y655320D02*
X749300Y654050D01*
X675132Y469392D02*
X647700Y469392D01*
X597408Y419100D01*
X675132Y469392D02*
X676402Y469646D01*
X597408Y419100D02*
X596900Y419100D01*
X469392Y632460D02*
X445008Y632460D01*
X444500Y631825D01*
X469392Y632460D02*
X469900Y631825D01*
X480060Y620268D02*
X484632Y620268D01*
X495300Y630936D01*
X495300Y631825D01*
X521208Y632460D02*
X550164Y632460D01*
X571500Y653796D01*
X521208Y632460D02*
X520700Y631825D01*
X571500Y653796D02*
X571500Y654050D01*
X647700Y519684D02*
X647700Y469392D01*
X647700Y519684D02*
X638556Y528828D01*
X638556Y554736D01*
X664464Y580644D01*
X672084Y580644D01*
X682752Y591312D01*
X682752Y626364D01*
X653796Y655320D01*
X632460Y655320D01*
X615696Y672084D01*
X609600Y672084D01*
X609600Y673100D01*
X749808Y615696D02*
X749808Y595884D01*
X766572Y579120D01*
X798576Y579120D01*
X801624Y576072D01*
X801624Y574548D02*
X801624Y569976D01*
X801624Y574548D02*
X801624Y576072D01*
X801624Y569976D02*
X798576Y566928D01*
X789432Y566928D01*
X783336Y573024D01*
X701040Y573024D01*
X682752Y591312D01*
X749300Y615950D02*
X749808Y615696D01*
X801624Y574548D02*
X807720Y574548D01*
D15*
X480060Y620268D03*
X807720Y574548D03*
D14*
X318516Y289560D02*
X318516Y254508D01*
X318516Y289560D02*
X320040Y291084D01*
X318516Y254508D02*
X317500Y254000D01*
X320040Y291084D02*
X321056Y292354D01*
X324612Y495300D02*
X368300Y495300D01*
X324612Y495300D02*
X323342Y496316D01*
X320040Y298704D02*
X320040Y292608D01*
X320040Y298704D02*
X254508Y364236D01*
X254508Y431292D01*
X203200Y482600D01*
X320040Y292608D02*
X321056Y292354D01*
X978408Y749808D02*
X978408Y774192D01*
X978408Y749808D02*
X990600Y737616D01*
X990600Y330708D01*
X952500Y292608D01*
X978408Y774192D02*
X977900Y774700D01*
X952500Y292608D02*
X952500Y292100D01*
X723900Y495300D02*
X676656Y495300D01*
X676402Y495046D01*
X716280Y697992D02*
X725424Y697992D01*
X758952Y664464D01*
X758952Y629412D01*
X755904Y626364D01*
X716280Y697992D02*
X716280Y699262D01*
X545592Y291084D02*
X533400Y291084D01*
X545592Y291084D02*
X560832Y275844D01*
X594360Y275844D01*
X603504Y284988D01*
X603504Y288036D01*
X533400Y291084D02*
X532892Y292354D01*
D15*
X755904Y626364D03*
X603504Y288036D03*
D14*
X545592Y615696D02*
X492252Y615696D01*
X480060Y603504D01*
X384048Y262128D02*
X384048Y251460D01*
X368808Y236220D01*
X545592Y615696D02*
X546100Y615950D01*
X368808Y236220D02*
X368300Y234950D01*
X342900Y555625D02*
X342900Y618744D01*
X355092Y630936D01*
X355092Y682752D02*
X355092Y717804D01*
X355092Y682752D02*
X355092Y630936D01*
X355092Y717804D02*
X367284Y729996D01*
X368300Y730250D01*
X225552Y291084D02*
X219456Y291084D01*
X225552Y291084D02*
X318516Y198120D01*
X342900Y198120D01*
X219456Y291084D02*
X219456Y292354D01*
X342900Y198120D02*
X342900Y196850D01*
X355092Y682752D02*
X271272Y682752D01*
X207264Y618744D01*
X192024Y618744D01*
X181356Y608076D01*
X181356Y606552D01*
X169164Y594360D01*
X155448Y594360D01*
X149352Y588264D01*
X149352Y432816D01*
X210312Y371856D01*
X210312Y301752D01*
X219456Y292608D01*
X219456Y292354D01*
D15*
X480060Y603504D03*
X384048Y262128D03*
D14*
X368808Y210312D02*
X368808Y198120D01*
X368808Y210312D02*
X393192Y234696D01*
X368808Y198120D02*
X368300Y196850D01*
X393192Y234696D02*
X393700Y234950D01*
X271272Y262128D02*
X271272Y291084D01*
X271272Y262128D02*
X323088Y210312D01*
X368808Y210312D01*
X271272Y291084D02*
X270256Y292354D01*
X367284Y556260D02*
X367284Y620268D01*
X358140Y629412D01*
X358140Y694944D01*
X393192Y729996D01*
X367284Y556260D02*
X368300Y555625D01*
X393192Y729996D02*
X393700Y730250D01*
X556260Y569976D02*
X565404Y569976D01*
X556260Y569976D02*
X533400Y547116D01*
X533400Y480060D01*
X515112Y461772D01*
X409956Y461772D02*
X350520Y461772D01*
X409956Y461772D02*
X515112Y461772D01*
X416052Y402336D02*
X416052Y390144D01*
X416052Y402336D02*
X409956Y408432D01*
X409956Y461772D01*
D15*
X565404Y569976D03*
X350520Y461772D03*
X416052Y390144D03*
D14*
X394716Y210312D02*
X394716Y198120D01*
X394716Y210312D02*
X419100Y234696D01*
X394716Y198120D02*
X393700Y196850D01*
X419100Y234696D02*
X419100Y234950D01*
X271272Y362712D02*
X271272Y367284D01*
X271272Y362712D02*
X345948Y288036D01*
X345948Y281940D01*
X359664Y268224D01*
X387096Y268224D01*
X419100Y236220D01*
X271272Y367284D02*
X270256Y368554D01*
X419100Y236220D02*
X419100Y234950D01*
X509016Y582168D02*
X621792Y582168D01*
X495300Y568452D02*
X472440Y545592D01*
X495300Y568452D02*
X509016Y582168D01*
X472440Y545592D02*
X466344Y545592D01*
X454152Y557784D01*
X454152Y609600D01*
X434340Y629412D01*
X434340Y720852D01*
X443484Y729996D01*
X444500Y730250D01*
X419100Y210312D02*
X419100Y196850D01*
X419100Y210312D02*
X443484Y234696D01*
X444500Y234950D01*
X219456Y338328D02*
X219456Y368554D01*
X219456Y338328D02*
X260604Y297180D01*
X260604Y268224D01*
X323088Y205740D01*
X347472Y205740D01*
X358140Y195072D01*
X358140Y193548D01*
X364236Y187452D01*
X409956Y187452D01*
X419100Y196596D01*
X419100Y196850D01*
D15*
X621792Y582168D03*
X495300Y568452D03*
D14*
X431292Y292354D02*
X431292Y274320D01*
X469392Y236220D01*
X469900Y234950D01*
X445008Y210312D02*
X445008Y198120D01*
X445008Y210312D02*
X469392Y234696D01*
X445008Y198120D02*
X444500Y196850D01*
X469392Y234696D02*
X469900Y234950D01*
X641604Y617220D02*
X647700Y617220D01*
X641604Y617220D02*
X598932Y659892D01*
X585216Y659892D01*
X533400Y711708D01*
X515112Y711708D01*
X504444Y722376D01*
X504444Y740664D01*
X498348Y746760D01*
X486156Y746760D01*
X470916Y731520D01*
X647700Y617220D02*
X647700Y615950D01*
X470916Y731520D02*
X469900Y730250D01*
X431292Y297180D02*
X431292Y292354D01*
X431292Y297180D02*
X367284Y361188D01*
X367284Y400812D01*
X344424Y423672D01*
X344424Y464820D01*
X347472Y467868D01*
X516636Y467868D01*
X530352Y481584D01*
X530352Y505968D01*
X493776Y542544D01*
X457200Y542544D01*
X445008Y554736D01*
X444500Y555625D01*
X470916Y210312D02*
X470916Y198120D01*
X470916Y210312D02*
X495300Y234696D01*
X470916Y198120D02*
X469900Y196850D01*
X495300Y234696D02*
X495300Y234950D01*
X483108Y248412D02*
X483108Y291084D01*
X483108Y248412D02*
X495300Y236220D01*
X483108Y291084D02*
X482092Y292354D01*
X495300Y236220D02*
X495300Y234950D01*
X470916Y588264D02*
X470916Y620268D01*
X470916Y588264D02*
X470916Y556260D01*
X470916Y620268D02*
X486156Y635508D01*
X486156Y720852D01*
X495300Y729996D01*
X470916Y556260D02*
X469900Y555625D01*
X495300Y729996D02*
X495300Y730250D01*
X644652Y588264D02*
X672084Y615696D01*
X644652Y588264D02*
X470916Y588264D01*
X672084Y615696D02*
X673100Y615950D01*
X697992Y617220D02*
X656844Y658368D01*
X637032Y658368D01*
X609600Y685800D01*
X568452Y685800D01*
X524256Y729996D01*
X521208Y729996D01*
X697992Y617220D02*
X698500Y615950D01*
X521208Y729996D02*
X520700Y730250D01*
X495300Y210312D02*
X495300Y196850D01*
X495300Y210312D02*
X519684Y234696D01*
X520700Y234950D01*
X519684Y236220D02*
X519684Y260604D01*
X492252Y288036D01*
X492252Y323088D01*
X481584Y333756D01*
X519684Y236220D02*
X520700Y234950D01*
X647700Y586740D02*
X669036Y586740D01*
X647700Y586740D02*
X637032Y576072D01*
X515112Y576072D01*
X495300Y556260D01*
X495300Y555625D01*
D15*
X481584Y333756D03*
X669036Y586740D03*
D14*
X437388Y368808D02*
X431292Y368808D01*
X437388Y368808D02*
X470916Y402336D01*
X472440Y402336D01*
X486156Y416052D01*
X486156Y429768D01*
X515112Y458724D01*
X516636Y458724D01*
X536448Y478536D01*
X536448Y519684D01*
X539496Y522732D01*
X431292Y368808D02*
X431292Y368554D01*
X717804Y617220D02*
X723900Y617220D01*
X717804Y617220D02*
X673608Y661416D01*
X638556Y661416D01*
X611124Y688848D01*
X588264Y688848D01*
X547116Y729996D01*
X723900Y617220D02*
X723900Y615950D01*
X547116Y729996D02*
X546100Y730250D01*
D15*
X539496Y522732D03*
D14*
X195072Y367284D02*
X195072Y292608D01*
X194056Y292354D01*
X195072Y367284D02*
X194056Y368554D01*
X400812Y292608D02*
X405384Y292608D01*
X367284Y326136D02*
X341376Y352044D01*
X367284Y326136D02*
X400812Y292608D01*
X341376Y352044D02*
X310896Y352044D01*
X295656Y367284D01*
X405384Y292608D02*
X405892Y292354D01*
X295656Y367284D02*
X295656Y368554D01*
X298704Y533400D02*
X298704Y662940D01*
X298704Y533400D02*
X283464Y518160D01*
X269748Y518160D01*
X263652Y512064D01*
X263652Y400812D01*
X295656Y368808D01*
X295656Y368554D01*
X615696Y367284D02*
X615696Y292608D01*
X615950Y292100D01*
X615696Y367284D02*
X615950Y368300D01*
X413004Y367284D02*
X406908Y367284D01*
X413004Y367284D02*
X434340Y345948D01*
X486156Y345948D01*
X507492Y367284D01*
X406908Y367284D02*
X405892Y368554D01*
X507492Y368554D02*
X507492Y367284D01*
X597408Y272796D02*
X615696Y291084D01*
X597408Y272796D02*
X525780Y272796D01*
X507492Y291084D01*
X615696Y291084D02*
X615950Y292100D01*
X507492Y292354D02*
X507492Y291084D01*
X826008Y368808D02*
X826008Y381000D01*
X833628Y388620D01*
X839724Y388620D01*
X842772Y385572D01*
X842772Y379476D01*
X839724Y376428D01*
X839724Y310896D01*
X826008Y297180D01*
X826008Y292608D01*
X825500Y368300D02*
X826008Y368808D01*
X826008Y292608D02*
X825500Y292100D01*
X873252Y676656D02*
X873252Y682752D01*
X873252Y676656D02*
X888492Y661416D01*
X888492Y519684D01*
X885444Y516636D01*
X885444Y510540D01*
X891540Y504444D01*
X891540Y461772D01*
X911352Y441960D01*
X723900Y292608D02*
X717804Y292608D01*
X723900Y292608D02*
X780288Y348996D01*
X806196Y348996D01*
X825500Y368300D01*
X717804Y292608D02*
X717550Y292100D01*
X371856Y330708D02*
X367284Y326136D01*
D15*
X298704Y662940D03*
X873252Y682752D03*
X911352Y441960D03*
X371856Y330708D03*
D14*
X851916Y617220D02*
X851916Y635508D01*
X861060Y644652D01*
X861060Y720852D01*
X851916Y729996D01*
X851916Y617220D02*
X850900Y615950D01*
X851916Y729996D02*
X850900Y730250D01*
X650748Y358140D02*
X650748Y219456D01*
X650748Y358140D02*
X641604Y367284D01*
X641350Y368300D01*
X851916Y559308D02*
X851916Y615696D01*
X851916Y559308D02*
X861060Y550164D01*
X861060Y525780D01*
X836676Y382524D02*
X836676Y348996D01*
X784860Y297180D01*
X784860Y245364D01*
X733044Y193548D01*
X733044Y192024D01*
X728472Y187452D01*
X682752Y187452D01*
X673608Y196596D01*
X850900Y615950D02*
X851916Y615696D01*
X673100Y196850D02*
X673608Y196596D01*
D15*
X650748Y219456D03*
X861060Y525780D03*
X836676Y382524D03*
D14*
X824484Y617220D02*
X824484Y635508D01*
X815340Y644652D01*
X815340Y720852D01*
X824484Y729996D01*
X824484Y617220D02*
X825500Y615950D01*
X824484Y729996D02*
X825500Y730250D01*
X647700Y207264D02*
X647700Y196850D01*
X647700Y207264D02*
X656844Y216408D01*
X656844Y275844D01*
X653796Y278892D01*
X653796Y329184D01*
X691896Y367284D01*
X692150Y368300D01*
X826008Y580644D02*
X826008Y615696D01*
X826008Y580644D02*
X841248Y565404D01*
X841248Y528828D01*
X858012Y512064D01*
X879348Y512064D01*
X888492Y502920D01*
X888492Y455676D01*
X911352Y432816D01*
X911352Y408432D01*
X905256Y402336D01*
X899160Y402336D01*
X888492Y413004D01*
X888492Y446532D01*
X885444Y449580D01*
X731520Y449580D01*
X693420Y411480D01*
X693420Y368808D01*
X825500Y615950D02*
X826008Y615696D01*
X693420Y368808D02*
X692150Y368300D01*
X633984Y196596D02*
X623316Y196596D01*
X633984Y196596D02*
X643128Y187452D01*
X652272Y187452D01*
X659892Y195072D01*
X659892Y259080D01*
X669036Y268224D02*
X691896Y291084D01*
X669036Y268224D02*
X659892Y259080D01*
X623316Y196596D02*
X622300Y196850D01*
X691896Y291084D02*
X692150Y292100D01*
X669036Y268224D02*
X656844Y280416D01*
X656844Y312420D01*
X708660Y364236D01*
X708660Y417576D01*
X733044Y600456D02*
X733044Y629412D01*
X723900Y638556D01*
X763524Y676656D02*
X784860Y676656D01*
X790956Y670560D01*
X790956Y626364D01*
X800100Y617220D01*
X800100Y615950D01*
D15*
X708660Y417576D03*
X733044Y600456D03*
X723900Y638556D03*
X763524Y676656D03*
D14*
X952500Y615950D02*
X952500Y559308D01*
X940308Y547116D01*
X940308Y431292D01*
X937260Y428244D01*
X937260Y409956D01*
X918972Y391668D01*
X874776Y391668D01*
X851916Y368808D01*
X850900Y368300D01*
X827532Y275844D02*
X749808Y198120D01*
X827532Y275844D02*
X829056Y275844D01*
X841248Y288036D01*
X841248Y307848D01*
X901700Y368300D01*
X749808Y198120D02*
X749300Y196850D01*
X928116Y697992D02*
X928116Y729996D01*
X928116Y697992D02*
X967740Y658368D01*
X967740Y623316D01*
X970788Y620268D01*
X970788Y457200D01*
X940308Y426720D01*
X940308Y406908D01*
X901700Y368300D01*
X928116Y729996D02*
X927100Y730250D01*
X723900Y198120D02*
X710184Y198120D01*
X702564Y205740D01*
X669036Y205740D01*
X662940Y199644D01*
X662940Y193548D01*
X672084Y184404D01*
X794004Y184404D01*
X901700Y292100D01*
X723900Y198120D02*
X723900Y196850D01*
X900684Y559308D02*
X900684Y615696D01*
X900684Y559308D02*
X891540Y550164D01*
X891540Y513588D01*
X900684Y615696D02*
X901700Y615950D01*
D15*
X891540Y513588D03*
D14*
X876300Y615950D02*
X876300Y633984D01*
X867156Y643128D01*
X867156Y707136D01*
X970788Y417576D02*
X937260Y384048D01*
X923544Y384048D01*
X911352Y371856D01*
X911352Y352044D01*
X851916Y292608D01*
X850900Y292100D01*
D15*
X867156Y707136D03*
X970788Y417576D03*
D14*
X563880Y292608D02*
X553212Y292608D01*
X505968Y339852D01*
X408432Y339852D01*
X381000Y367284D01*
X563880Y292608D02*
X565150Y292100D01*
X381000Y367284D02*
X380492Y368554D01*
X800100Y368808D02*
X806196Y368808D01*
X836676Y399288D01*
X906780Y399288D01*
X917448Y409956D01*
X917448Y626364D01*
X929640Y638556D01*
X931164Y638556D01*
X937260Y644652D01*
X937260Y675132D01*
X888492Y723900D01*
X888492Y742188D01*
X874776Y755904D01*
X870204Y755904D01*
X851916Y774192D01*
X800100Y368808D02*
X800100Y368300D01*
X851916Y774192D02*
X850900Y774700D01*
X278892Y697992D02*
X216408Y697992D01*
X201168Y682752D01*
X193548Y682752D01*
X134112Y623316D01*
X134112Y347472D01*
X181356Y300228D01*
X181356Y280416D01*
X280416Y181356D01*
X568452Y181356D01*
X644652Y257556D01*
X678180Y257556D02*
X708660Y288036D01*
X708660Y303276D01*
X757428Y352044D01*
X784860Y352044D01*
X800100Y367284D01*
X279400Y698500D02*
X278892Y697992D01*
X800100Y368300D02*
X800100Y367284D01*
D15*
X644652Y257556D03*
X678180Y257556D03*
D14*
X336804Y367284D02*
X321564Y367284D01*
X336804Y367284D02*
X364236Y339852D01*
X370332Y339852D01*
X321564Y367284D02*
X321056Y368554D01*
D15*
X370332Y339852D03*
D14*
X457200Y368808D02*
X461772Y368808D01*
X495300Y402336D01*
X498348Y402336D01*
X510540Y414528D01*
X510540Y428244D01*
X560832Y478536D01*
X579120Y478536D01*
X595884Y495300D01*
X457200Y368808D02*
X456692Y368554D01*
X595884Y495300D02*
X596900Y495300D01*
X667512Y292608D02*
X672084Y292608D01*
X731520Y352044D01*
X746760Y352044D01*
X765048Y370332D01*
X765048Y377952D01*
X789432Y402336D01*
X833628Y402336D01*
X850392Y419100D01*
X667512Y292608D02*
X666750Y292100D01*
X850392Y419100D02*
X850900Y419100D01*
X591312Y348996D02*
X591312Y292608D01*
X591312Y348996D02*
X606552Y364236D01*
X606552Y379476D01*
X679704Y452628D01*
X886968Y452628D01*
X900684Y438912D01*
X900684Y419100D01*
X591312Y292608D02*
X590550Y292100D01*
X900684Y419100D02*
X901700Y419100D01*
X893064Y385572D02*
X876300Y368808D01*
X893064Y385572D02*
X894588Y385572D01*
X876300Y368808D02*
X876300Y368300D01*
D15*
X894588Y385572D03*
D14*
X571500Y495300D02*
X565404Y495300D01*
X518160Y448056D01*
X513588Y448056D01*
X513588Y473964D02*
X446532Y473964D01*
X428244Y492252D01*
X428244Y507492D01*
X377952Y557784D01*
X377952Y644652D01*
X368808Y653796D01*
X368300Y654050D01*
D15*
X513588Y448056D03*
X513588Y473964D03*
D14*
X394716Y655320D02*
X394716Y711708D01*
X403860Y720852D01*
X403860Y765048D01*
X394716Y774192D01*
X394716Y655320D02*
X393700Y654050D01*
X394716Y774192D02*
X393700Y774700D01*
X515112Y495300D02*
X520700Y495300D01*
X515112Y495300D02*
X498348Y478536D01*
X466344Y478536D01*
X454152Y490728D01*
X454152Y507492D01*
X403860Y557784D01*
X403860Y608076D01*
X384048Y627888D01*
X384048Y644652D01*
X393192Y653796D01*
X393700Y654050D01*
X419100Y654050D02*
X419100Y710184D01*
X409956Y719328D01*
X409956Y765048D01*
X419100Y774192D01*
X419100Y774700D01*
X469392Y518160D02*
X469392Y495300D01*
X469392Y518160D02*
X428244Y559308D01*
X428244Y644652D01*
X419100Y653796D01*
X469392Y495300D02*
X469900Y495300D01*
X419100Y653796D02*
X419100Y654050D01*
X824484Y516636D02*
X824484Y495300D01*
X824484Y516636D02*
X812292Y528828D01*
X812292Y569976D01*
X813816Y571500D01*
X813816Y586740D01*
X800100Y600456D01*
X795528Y600456D01*
X784860Y611124D01*
X784860Y667512D01*
X824484Y495300D02*
X825500Y495300D01*
X710184Y720852D02*
X644652Y720852D01*
X710184Y720852D02*
X760476Y670560D01*
X781812Y670560D01*
X784860Y667512D01*
D15*
X784860Y667512D03*
X644652Y720852D03*
D14*
X870204Y495300D02*
X876300Y495300D01*
X870204Y495300D02*
X835152Y530352D01*
X835152Y566928D01*
X816864Y585216D01*
X816864Y605028D01*
X809244Y612648D01*
X809244Y644652D01*
X800100Y653796D01*
X800100Y654050D01*
X595884Y740664D02*
X595884Y774192D01*
X595884Y740664D02*
X609600Y726948D01*
X733044Y726948D01*
X780288Y679704D01*
X786384Y679704D01*
X800100Y665988D01*
X800100Y654050D01*
X596900Y774700D02*
X595884Y774192D01*
X626364Y705612D02*
X662940Y705612D01*
X626364Y705612D02*
X591312Y740664D01*
X591312Y754380D01*
X571500Y774192D01*
X571500Y774700D01*
X765048Y605028D02*
X781812Y588264D01*
X765048Y605028D02*
X765048Y644652D01*
X774192Y653796D01*
X774700Y654050D01*
D15*
X662940Y705612D03*
X781812Y588264D03*
D14*
X928116Y477012D02*
X928116Y419100D01*
X928116Y477012D02*
X937260Y486156D01*
X937260Y638556D01*
X952500Y653796D01*
X928116Y419100D02*
X927100Y419100D01*
X952500Y653796D02*
X952500Y654050D01*
X749808Y763524D02*
X749808Y774192D01*
X749808Y763524D02*
X763524Y749808D01*
X876300Y749808D01*
X885444Y740664D01*
X885444Y717804D01*
X917448Y685800D01*
X749808Y774192D02*
X749300Y774700D01*
D15*
X917448Y685800D03*
D14*
X909828Y527304D02*
X909828Y524256D01*
X909828Y527304D02*
X914400Y531876D01*
X914400Y641604D01*
X926592Y653796D01*
X927100Y654050D01*
X726948Y774192D02*
X723900Y774192D01*
X726948Y774192D02*
X754380Y746760D01*
X854964Y746760D01*
X867156Y734568D01*
X867156Y716280D01*
X928116Y655320D01*
X723900Y774192D02*
X723900Y774700D01*
X927100Y654050D02*
X928116Y655320D01*
D15*
X909828Y524256D03*
D14*
X792480Y556260D02*
X781812Y566928D01*
X780288Y566928D01*
X775716Y585216D02*
X769620Y585216D01*
X775716Y585216D02*
X778764Y582168D01*
X806196Y582168D01*
X807720Y583692D01*
X697992Y754380D02*
X697992Y774192D01*
X697992Y754380D02*
X681228Y737616D01*
X669036Y737616D01*
X665988Y740664D01*
X641604Y740664D01*
X638556Y737616D01*
X656844Y563880D02*
X777240Y563880D01*
X780288Y566928D01*
X697992Y774192D02*
X698500Y774700D01*
D15*
X792480Y556260D03*
X780288Y566928D03*
X769620Y585216D03*
X807720Y583692D03*
X638556Y737616D03*
X656844Y563880D03*
D14*
X774700Y419100D02*
X780288Y419100D01*
X804672Y443484D01*
X882396Y443484D01*
X879348Y518160D02*
X879348Y522732D01*
X885444Y528828D01*
X885444Y644652D01*
X876300Y653796D01*
X876300Y654050D01*
X673608Y748284D02*
X673608Y774192D01*
X673608Y748284D02*
X678180Y743712D01*
X673608Y774192D02*
X673100Y774700D01*
D15*
X882396Y443484D03*
X879348Y518160D03*
X678180Y743712D03*
D14*
X749808Y539496D02*
X774192Y539496D01*
X749808Y539496D02*
X749300Y539750D01*
X774192Y539496D02*
X774700Y539750D01*
X723900Y541020D02*
X699516Y541020D01*
X723900Y541020D02*
X723900Y539750D01*
X699516Y541020D02*
X698500Y539750D01*
X723900Y539496D02*
X748284Y539496D01*
X749300Y539750D01*
X723900Y539750D02*
X723900Y539496D01*
X775716Y541020D02*
X800100Y541020D01*
X800100Y539750D01*
X775716Y541020D02*
X774700Y539750D01*
X571500Y541020D02*
X547116Y541020D01*
X546100Y539750D01*
X571500Y539750D02*
X571500Y541020D01*
X280416Y481584D02*
X280416Y463296D01*
X364236Y379476D01*
X364236Y355092D01*
X405384Y313944D01*
X443484Y352044D02*
X486156Y352044D01*
X498348Y364236D01*
X498348Y379476D01*
X521208Y402336D01*
X524256Y402336D01*
X536448Y414528D01*
X536448Y429768D01*
X585216Y478536D01*
X600456Y478536D01*
X606552Y484632D01*
X606552Y530352D01*
X597408Y539496D01*
X280416Y481584D02*
X279400Y482600D01*
X596900Y539750D02*
X597408Y539496D01*
X615696Y539496D02*
X621792Y539496D01*
X615696Y539496D02*
X606552Y530352D01*
X621792Y539496D02*
X622300Y539750D01*
X647700Y541020D02*
X672084Y541020D01*
X673100Y539750D01*
X647700Y539750D02*
X647700Y541020D01*
D15*
X405384Y313944D03*
X443484Y352044D03*
D14*
X685800Y685800D02*
X685800Y698500D01*
X685800Y685800D02*
X739140Y632460D01*
X739140Y601980D01*
X765048Y576072D01*
X792480Y576072D01*
X795528Y573024D01*
D15*
X795528Y573024D03*
D14*
X233172Y557784D02*
X204216Y557784D01*
X233172Y557784D02*
X242316Y548640D01*
X289560Y548640D01*
X295656Y554736D01*
X295656Y656844D01*
X279400Y673100D01*
X203200Y558800D02*
X204216Y557784D01*
X876300Y774192D02*
X879348Y774192D01*
X897636Y755904D01*
X922020Y755904D01*
X943356Y734568D01*
X943356Y708660D01*
X987552Y664464D01*
X987552Y371856D01*
X911352Y295656D01*
X911352Y281940D01*
X810768Y181356D01*
X577596Y181356D01*
X329184Y227076D02*
X301752Y254508D01*
X301752Y266700D01*
X280416Y288036D01*
X280416Y312420D01*
X228600Y364236D01*
X228600Y437388D01*
X187452Y478536D01*
X187452Y542544D01*
X202692Y557784D01*
X876300Y774192D02*
X876300Y774700D01*
X203200Y558800D02*
X202692Y557784D01*
D15*
X577596Y181356D03*
X329184Y227076D03*
D14*
X644652Y734568D02*
X662940Y734568D01*
X644652Y734568D02*
X641604Y731520D01*
X614172Y731520D01*
X601980Y743712D01*
X562356Y755904D02*
X426720Y755904D01*
X376428Y755904D02*
X286512Y755904D01*
X280416Y749808D01*
X279400Y749300D01*
D15*
X662940Y734568D03*
X601980Y743712D03*
X562356Y755904D03*
X426720Y755904D03*
X376428Y755904D03*
D14*
X350520Y509016D02*
X280416Y509016D01*
X350520Y509016D02*
X384048Y542544D01*
X419100Y749808D02*
X583692Y749808D01*
X585216Y751332D01*
X637032Y751332D02*
X661416Y751332D01*
X280416Y509016D02*
X279400Y508000D01*
D15*
X384048Y542544D03*
X419100Y749808D03*
X585216Y751332D03*
X637032Y751332D03*
X661416Y751332D03*
D14*
X310896Y472440D02*
X300228Y472440D01*
X310896Y472440D02*
X318516Y480060D01*
X364236Y480060D01*
X367284Y477012D01*
X434340Y477012D01*
X477012Y594360D02*
X646176Y594360D01*
X656844Y605028D01*
X656844Y626364D01*
X620268Y662940D01*
X586740Y662940D01*
X534924Y714756D01*
X516636Y714756D01*
X510540Y720852D01*
X510540Y740664D01*
X516636Y746760D01*
X580644Y746760D01*
X653796Y673608D01*
X685800Y673608D01*
X685800Y673100D01*
X890016Y749808D02*
X902208Y749808D01*
X890016Y749808D02*
X883920Y755904D01*
X833628Y755904D02*
X766572Y755904D01*
D15*
X300228Y472440D03*
X434340Y477012D03*
X477012Y594360D03*
X902208Y749808D03*
X883920Y755904D03*
X833628Y755904D03*
X766572Y755904D03*
D14*
X278892Y559308D02*
X236220Y559308D01*
X220980Y574548D01*
X175260Y574548D01*
X166116Y583692D01*
X278892Y559308D02*
X279400Y558800D01*
X166116Y583692D02*
X165100Y584200D01*
X146304Y591312D02*
X164592Y609600D01*
X146304Y591312D02*
X146304Y411480D01*
X184404Y373380D01*
X184404Y281940D01*
X281940Y184404D01*
X528828Y184404D01*
X632460Y288036D01*
X632460Y396240D01*
X653796Y667512D02*
X591312Y729996D01*
X571500Y729996D01*
X165100Y609600D02*
X164592Y609600D01*
X571500Y729996D02*
X571500Y730250D01*
X964692Y617220D02*
X964692Y598932D01*
X824484Y568452D02*
X824484Y559308D01*
X815340Y550164D01*
X815340Y530352D01*
X835152Y510540D01*
X835152Y484632D01*
X829056Y478536D01*
X771144Y478536D01*
X758952Y490728D01*
X758952Y505968D01*
X745236Y519684D01*
X714756Y519684D01*
D15*
X632460Y396240D03*
X653796Y667512D03*
X964692Y617220D03*
X964692Y598932D03*
X824484Y568452D03*
X714756Y519684D03*
D14*
X743712Y495300D02*
X749300Y495300D01*
X743712Y495300D02*
X704088Y455676D01*
X653796Y455676D01*
X582168Y384048D01*
X560832Y384048D01*
X542544Y365760D01*
X542544Y358140D01*
X527304Y342900D01*
X411480Y342900D01*
X390144Y364236D01*
X390144Y397764D01*
X368808Y419100D01*
X368300Y419100D01*
M02*
