G04 EAGLE Gerber RS-274X export*
G75*
%MOMM*%
%FSLAX34Y34*%
%LPD*%
%INTop Copper*%
%IPPOS*%
%AMOC8*
5,1,8,0,0,1.08239X$1,22.5*%
G01*
%ADD10C,1.320800*%
%ADD11C,1.524000*%
%ADD12P,1.429621X8X292.500000*%
%ADD13P,1.429621X8X202.500000*%
%ADD14P,1.429621X8X22.500000*%
%ADD15C,0.152400*%
%ADD16C,0.756400*%


D10*
X342900Y647446D02*
X342900Y660654D01*
X368300Y660654D02*
X368300Y647446D01*
X495300Y647446D02*
X495300Y660654D01*
X520700Y660654D02*
X520700Y647446D01*
X393700Y647446D02*
X393700Y660654D01*
X419100Y660654D02*
X419100Y647446D01*
X469900Y647446D02*
X469900Y660654D01*
X444500Y660654D02*
X444500Y647446D01*
X546100Y647446D02*
X546100Y660654D01*
X571500Y660654D02*
X571500Y647446D01*
X571500Y723646D02*
X571500Y736854D01*
X546100Y736854D02*
X546100Y723646D01*
X520700Y723646D02*
X520700Y736854D01*
X495300Y736854D02*
X495300Y723646D01*
X469900Y723646D02*
X469900Y736854D01*
X444500Y736854D02*
X444500Y723646D01*
X419100Y723646D02*
X419100Y736854D01*
X393700Y736854D02*
X393700Y723646D01*
X368300Y723646D02*
X368300Y736854D01*
X342900Y736854D02*
X342900Y723646D01*
X749300Y660654D02*
X749300Y647446D01*
X774700Y647446D02*
X774700Y660654D01*
X901700Y660654D02*
X901700Y647446D01*
X927100Y647446D02*
X927100Y660654D01*
X800100Y660654D02*
X800100Y647446D01*
X825500Y647446D02*
X825500Y660654D01*
X876300Y660654D02*
X876300Y647446D01*
X850900Y647446D02*
X850900Y660654D01*
X952500Y660654D02*
X952500Y647446D01*
X977900Y647446D02*
X977900Y660654D01*
X977900Y723646D02*
X977900Y736854D01*
X952500Y736854D02*
X952500Y723646D01*
X927100Y723646D02*
X927100Y736854D01*
X901700Y736854D02*
X901700Y723646D01*
X876300Y723646D02*
X876300Y736854D01*
X850900Y736854D02*
X850900Y723646D01*
X825500Y723646D02*
X825500Y736854D01*
X800100Y736854D02*
X800100Y723646D01*
X774700Y723646D02*
X774700Y736854D01*
X749300Y736854D02*
X749300Y723646D01*
D11*
X546100Y767080D02*
X546100Y782320D01*
X520700Y782320D02*
X520700Y767080D01*
X495300Y767080D02*
X495300Y782320D01*
X469900Y782320D02*
X469900Y767080D01*
X444500Y767080D02*
X444500Y782320D01*
X419100Y782320D02*
X419100Y767080D01*
X393700Y767080D02*
X393700Y782320D01*
X368300Y782320D02*
X368300Y767080D01*
X749300Y767080D02*
X749300Y782320D01*
X723900Y782320D02*
X723900Y767080D01*
X698500Y767080D02*
X698500Y782320D01*
X673100Y782320D02*
X673100Y767080D01*
X647700Y767080D02*
X647700Y782320D01*
X622300Y782320D02*
X622300Y767080D01*
X596900Y767080D02*
X596900Y782320D01*
X571500Y782320D02*
X571500Y767080D01*
X774700Y407670D02*
X774700Y392430D01*
X800100Y392430D02*
X800100Y407670D01*
X825500Y407670D02*
X825500Y392430D01*
X850900Y392430D02*
X850900Y407670D01*
X876300Y407670D02*
X876300Y392430D01*
X901700Y392430D02*
X901700Y407670D01*
X927100Y407670D02*
X927100Y392430D01*
X952500Y392430D02*
X952500Y407670D01*
D12*
X342900Y501650D03*
X342900Y425450D03*
X368300Y501650D03*
X368300Y425450D03*
X393700Y501650D03*
X393700Y425450D03*
X419100Y501650D03*
X419100Y425450D03*
X444500Y501650D03*
X444500Y425450D03*
X469900Y501650D03*
X469900Y425450D03*
X495300Y501650D03*
X495300Y425450D03*
X520700Y501650D03*
X520700Y425450D03*
X774700Y501650D03*
X774700Y425450D03*
X800100Y501650D03*
X800100Y425450D03*
X825500Y501650D03*
X825500Y425450D03*
X850900Y501650D03*
X850900Y425450D03*
X876300Y501650D03*
X876300Y425450D03*
X901700Y501650D03*
X901700Y425450D03*
X927100Y501650D03*
X927100Y425450D03*
X952500Y501650D03*
X952500Y425450D03*
D11*
X342900Y404495D02*
X342900Y389255D01*
X368300Y389255D02*
X368300Y404495D01*
X393700Y404495D02*
X393700Y389255D01*
X419100Y389255D02*
X419100Y404495D01*
X444500Y404495D02*
X444500Y389255D01*
X469900Y389255D02*
X469900Y404495D01*
X495300Y404495D02*
X495300Y389255D01*
X520700Y389255D02*
X520700Y404495D01*
D10*
X321056Y375158D02*
X321056Y361950D01*
X295656Y361950D02*
X295656Y375158D01*
X168656Y375158D02*
X168656Y361950D01*
X143256Y361950D02*
X143256Y375158D01*
X270256Y375158D02*
X270256Y361950D01*
X244856Y361950D02*
X244856Y375158D01*
X194056Y375158D02*
X194056Y361950D01*
X219456Y361950D02*
X219456Y375158D01*
X143256Y298958D02*
X143256Y285750D01*
X168656Y285750D02*
X168656Y298958D01*
X194056Y298958D02*
X194056Y285750D01*
X219456Y285750D02*
X219456Y298958D01*
X244856Y298958D02*
X244856Y285750D01*
X270256Y285750D02*
X270256Y298958D01*
X295656Y298958D02*
X295656Y285750D01*
X321056Y285750D02*
X321056Y298958D01*
X532892Y361950D02*
X532892Y375158D01*
X507492Y375158D02*
X507492Y361950D01*
X380492Y361950D02*
X380492Y375158D01*
X355092Y375158D02*
X355092Y361950D01*
X482092Y361950D02*
X482092Y375158D01*
X456692Y375158D02*
X456692Y361950D01*
X405892Y361950D02*
X405892Y375158D01*
X431292Y375158D02*
X431292Y361950D01*
X355092Y298958D02*
X355092Y285750D01*
X380492Y285750D02*
X380492Y298958D01*
X405892Y298958D02*
X405892Y285750D01*
X431292Y285750D02*
X431292Y298958D01*
X456692Y298958D02*
X456692Y285750D01*
X482092Y285750D02*
X482092Y298958D01*
X507492Y298958D02*
X507492Y285750D01*
X532892Y285750D02*
X532892Y298958D01*
X742950Y361696D02*
X742950Y374904D01*
X717550Y374904D02*
X717550Y361696D01*
X590550Y361696D02*
X590550Y374904D01*
X565150Y374904D02*
X565150Y361696D01*
X692150Y361696D02*
X692150Y374904D01*
X666750Y374904D02*
X666750Y361696D01*
X615950Y361696D02*
X615950Y374904D01*
X641350Y374904D02*
X641350Y361696D01*
X565150Y298704D02*
X565150Y285496D01*
X590550Y285496D02*
X590550Y298704D01*
X615950Y298704D02*
X615950Y285496D01*
X641350Y285496D02*
X641350Y298704D01*
X666750Y298704D02*
X666750Y285496D01*
X692150Y285496D02*
X692150Y298704D01*
X717550Y298704D02*
X717550Y285496D01*
X742950Y285496D02*
X742950Y298704D01*
X952500Y361696D02*
X952500Y374904D01*
X927100Y374904D02*
X927100Y361696D01*
X800100Y361696D02*
X800100Y374904D01*
X774700Y374904D02*
X774700Y361696D01*
X901700Y361696D02*
X901700Y374904D01*
X876300Y374904D02*
X876300Y361696D01*
X825500Y361696D02*
X825500Y374904D01*
X850900Y374904D02*
X850900Y361696D01*
X774700Y298704D02*
X774700Y285496D01*
X800100Y285496D02*
X800100Y298704D01*
X825500Y298704D02*
X825500Y285496D01*
X850900Y285496D02*
X850900Y298704D01*
X876300Y298704D02*
X876300Y285496D01*
X901700Y285496D02*
X901700Y298704D01*
X927100Y298704D02*
X927100Y285496D01*
X952500Y285496D02*
X952500Y298704D01*
X304800Y178054D02*
X304800Y164846D01*
X330200Y164846D02*
X330200Y178054D01*
X457200Y178054D02*
X457200Y164846D01*
X482600Y164846D02*
X482600Y178054D01*
X355600Y178054D02*
X355600Y164846D01*
X381000Y164846D02*
X381000Y178054D01*
X431800Y178054D02*
X431800Y164846D01*
X406400Y164846D02*
X406400Y178054D01*
X508000Y178054D02*
X508000Y164846D01*
X533400Y164846D02*
X533400Y178054D01*
X533400Y241046D02*
X533400Y254254D01*
X508000Y254254D02*
X508000Y241046D01*
X482600Y241046D02*
X482600Y254254D01*
X457200Y254254D02*
X457200Y241046D01*
X431800Y241046D02*
X431800Y254254D01*
X406400Y254254D02*
X406400Y241046D01*
X381000Y241046D02*
X381000Y254254D01*
X355600Y254254D02*
X355600Y241046D01*
X330200Y241046D02*
X330200Y254254D01*
X304800Y254254D02*
X304800Y241046D01*
X723900Y178054D02*
X723900Y164846D01*
X749300Y164846D02*
X749300Y178054D01*
X876300Y178054D02*
X876300Y164846D01*
X901700Y164846D02*
X901700Y178054D01*
X774700Y178054D02*
X774700Y164846D01*
X800100Y164846D02*
X800100Y178054D01*
X850900Y178054D02*
X850900Y164846D01*
X825500Y164846D02*
X825500Y178054D01*
X927100Y178054D02*
X927100Y164846D01*
X952500Y164846D02*
X952500Y178054D01*
X952500Y241046D02*
X952500Y254254D01*
X927100Y254254D02*
X927100Y241046D01*
X901700Y241046D02*
X901700Y254254D01*
X876300Y254254D02*
X876300Y241046D01*
X850900Y241046D02*
X850900Y254254D01*
X825500Y254254D02*
X825500Y241046D01*
X800100Y241046D02*
X800100Y254254D01*
X774700Y254254D02*
X774700Y241046D01*
X749300Y241046D02*
X749300Y254254D01*
X723900Y254254D02*
X723900Y241046D01*
X546100Y609346D02*
X546100Y622554D01*
X546100Y546354D02*
X546100Y533146D01*
X571500Y609346D02*
X571500Y622554D01*
X571500Y546354D02*
X571500Y533146D01*
X596900Y609346D02*
X596900Y622554D01*
X596900Y546354D02*
X596900Y533146D01*
X622300Y609346D02*
X622300Y622554D01*
X622300Y546354D02*
X622300Y533146D01*
X647700Y609346D02*
X647700Y622554D01*
X647700Y546354D02*
X647700Y533146D01*
X673100Y609346D02*
X673100Y622554D01*
X673100Y546354D02*
X673100Y533146D01*
X698500Y609346D02*
X698500Y622554D01*
X698500Y546354D02*
X698500Y533146D01*
X723900Y609346D02*
X723900Y622554D01*
X723900Y546354D02*
X723900Y533146D01*
X774700Y609346D02*
X774700Y622554D01*
X774700Y546354D02*
X774700Y533146D01*
X800100Y609346D02*
X800100Y622554D01*
X800100Y546354D02*
X800100Y533146D01*
X825500Y609346D02*
X825500Y622554D01*
X825500Y546354D02*
X825500Y533146D01*
X850900Y609346D02*
X850900Y622554D01*
X850900Y546354D02*
X850900Y533146D01*
X876300Y609346D02*
X876300Y622554D01*
X876300Y546354D02*
X876300Y533146D01*
X901700Y609346D02*
X901700Y622554D01*
X901700Y546354D02*
X901700Y533146D01*
X927100Y609346D02*
X927100Y622554D01*
X927100Y546354D02*
X927100Y533146D01*
X952500Y609346D02*
X952500Y622554D01*
X952500Y546354D02*
X952500Y533146D01*
D12*
X749300Y615950D03*
X749300Y539750D03*
D11*
X774700Y767080D02*
X774700Y782320D01*
X800100Y782320D02*
X800100Y767080D01*
X825500Y767080D02*
X825500Y782320D01*
X850900Y782320D02*
X850900Y767080D01*
X876300Y767080D02*
X876300Y782320D01*
X901700Y782320D02*
X901700Y767080D01*
X927100Y767080D02*
X927100Y782320D01*
D10*
X286004Y482600D02*
X272796Y482600D01*
X272796Y508000D02*
X286004Y508000D01*
X286004Y635000D02*
X272796Y635000D01*
X209804Y635000D02*
X196596Y635000D01*
X272796Y533400D02*
X286004Y533400D01*
X286004Y558800D02*
X272796Y558800D01*
X272796Y609600D02*
X286004Y609600D01*
X286004Y584200D02*
X272796Y584200D01*
X209804Y609600D02*
X196596Y609600D01*
X196596Y584200D02*
X209804Y584200D01*
X209804Y558800D02*
X196596Y558800D01*
X196596Y533400D02*
X209804Y533400D01*
X209804Y508000D02*
X196596Y508000D01*
X196596Y482600D02*
X209804Y482600D01*
X171704Y482600D02*
X158496Y482600D01*
X158496Y508000D02*
X171704Y508000D01*
X171704Y635000D02*
X158496Y635000D01*
X95504Y635000D02*
X82296Y635000D01*
X158496Y533400D02*
X171704Y533400D01*
X171704Y558800D02*
X158496Y558800D01*
X158496Y609600D02*
X171704Y609600D01*
X171704Y584200D02*
X158496Y584200D01*
X95504Y609600D02*
X82296Y609600D01*
X82296Y584200D02*
X95504Y584200D01*
X95504Y558800D02*
X82296Y558800D01*
X82296Y533400D02*
X95504Y533400D01*
X95504Y508000D02*
X82296Y508000D01*
X82296Y482600D02*
X95504Y482600D01*
D13*
X685800Y673100D03*
X609600Y673100D03*
X685800Y698500D03*
X609600Y698500D03*
X279400Y673100D03*
X203200Y673100D03*
X279400Y698500D03*
X203200Y698500D03*
X279400Y723900D03*
X203200Y723900D03*
X279400Y749300D03*
X203200Y749300D03*
D11*
X342900Y534670D02*
X342900Y519430D01*
X368300Y519430D02*
X368300Y534670D01*
X393700Y534670D02*
X393700Y519430D01*
X419100Y519430D02*
X419100Y534670D01*
X444500Y534670D02*
X444500Y519430D01*
X469900Y519430D02*
X469900Y534670D01*
X495300Y534670D02*
X495300Y519430D01*
X520700Y519430D02*
X520700Y534670D01*
X952500Y767080D02*
X952500Y782320D01*
X977900Y782320D02*
X977900Y767080D01*
D12*
X520700Y631825D03*
X520700Y555625D03*
X495300Y631825D03*
X495300Y555625D03*
X469900Y631825D03*
X469900Y555625D03*
X444500Y631825D03*
X444500Y555625D03*
X419100Y631825D03*
X419100Y555625D03*
X393700Y631825D03*
X393700Y555625D03*
X368300Y631825D03*
X368300Y555625D03*
X342900Y631825D03*
X342900Y555625D03*
D13*
X271780Y255270D03*
X246380Y255270D03*
D14*
X609854Y244602D03*
X635254Y244602D03*
D13*
X661162Y731520D03*
X635762Y731520D03*
X331216Y768858D03*
X305816Y768858D03*
D14*
X168656Y442722D03*
X194056Y442722D03*
D15*
X571500Y655320D02*
X592836Y655320D01*
X609600Y672084D01*
X571500Y655320D02*
X571500Y654050D01*
X609600Y672084D02*
X609600Y673100D01*
X609600Y698500D01*
X646176Y722376D02*
X694944Y722376D01*
X646176Y722376D02*
X637032Y731520D01*
X635762Y731520D01*
X443484Y632460D02*
X419100Y632460D01*
X419100Y631825D01*
X443484Y632460D02*
X444500Y631825D01*
X341376Y633984D02*
X280416Y633984D01*
X341376Y633984D02*
X342900Y632460D01*
X280416Y633984D02*
X279400Y635000D01*
X342900Y632460D02*
X342900Y631825D01*
X355092Y495300D02*
X355092Y368554D01*
X355092Y495300D02*
X358140Y498348D01*
X358140Y592836D01*
X367284Y601980D01*
X367284Y630936D01*
X368300Y631825D01*
X976884Y655320D02*
X976884Y711708D01*
X961644Y726948D01*
X961644Y765048D01*
X952500Y774192D01*
X976884Y655320D02*
X977900Y654050D01*
X952500Y774192D02*
X952500Y774700D01*
X562356Y172212D02*
X533400Y172212D01*
X632460Y242316D02*
X633984Y243840D01*
X632460Y242316D02*
X562356Y172212D01*
X533400Y172212D02*
X533400Y171450D01*
X633984Y243840D02*
X635254Y244602D01*
X565404Y336804D02*
X565404Y367284D01*
X565404Y336804D02*
X606552Y295656D01*
X606552Y272796D01*
X633984Y245364D01*
X565404Y367284D02*
X565150Y368300D01*
X633984Y245364D02*
X635254Y244602D01*
X204216Y673608D02*
X204216Y697992D01*
X204216Y673608D02*
X203200Y673100D01*
X204216Y697992D02*
X203200Y698500D01*
X204216Y723900D02*
X204216Y748284D01*
X203200Y749300D01*
X222504Y768096D02*
X304800Y768096D01*
X222504Y768096D02*
X204216Y749808D01*
X304800Y768096D02*
X305816Y768858D01*
X204216Y749808D02*
X203200Y749300D01*
X204216Y723900D02*
X204216Y699516D01*
X203200Y698500D01*
X203200Y723900D02*
X204216Y723900D01*
X202692Y672084D02*
X166116Y635508D01*
X202692Y672084D02*
X203200Y673100D01*
X166116Y635508D02*
X165100Y635000D01*
X210312Y256032D02*
X245364Y256032D01*
X210312Y256032D02*
X184404Y281940D01*
X184404Y432816D01*
X193548Y441960D01*
X245364Y256032D02*
X246380Y255270D01*
X193548Y441960D02*
X194056Y442722D01*
X946404Y170688D02*
X952500Y170688D01*
X946404Y170688D02*
X925068Y149352D01*
X725424Y149352D01*
X632460Y242316D01*
X952500Y171450D02*
X952500Y170688D01*
X635254Y244602D02*
X632460Y242316D01*
X278892Y635508D02*
X240792Y635508D01*
X203200Y673100D01*
X278892Y635508D02*
X279400Y635000D01*
D16*
X694944Y722376D03*
D15*
X304800Y248412D02*
X278892Y248412D01*
X272796Y254508D01*
X304800Y248412D02*
X304800Y247650D01*
X272796Y254508D02*
X271780Y255270D01*
X342900Y730250D02*
X342900Y757428D01*
X332232Y768096D01*
X331216Y768858D01*
X169164Y448056D02*
X169164Y443484D01*
X169164Y448056D02*
X202692Y481584D01*
X169164Y443484D02*
X168656Y442722D01*
X202692Y481584D02*
X203200Y482600D01*
X135636Y481584D02*
X89916Y481584D01*
X135636Y481584D02*
X169164Y448056D01*
X89916Y481584D02*
X88900Y482600D01*
X169164Y448056D02*
X168656Y442722D01*
X925068Y263652D02*
X952500Y291084D01*
X925068Y263652D02*
X923544Y263652D01*
X911352Y251460D01*
X911352Y237744D01*
X861060Y187452D01*
X847344Y187452D01*
X835152Y175260D01*
X835152Y161544D01*
X826008Y152400D01*
X774192Y152400D01*
X762000Y164592D01*
X762000Y272796D01*
X743712Y291084D01*
X952500Y291084D02*
X952500Y292100D01*
X743712Y291084D02*
X742950Y292100D01*
X765048Y752856D02*
X769620Y752856D01*
X772668Y749808D01*
X915924Y749808D01*
X918972Y746760D01*
X609600Y245364D02*
X554736Y245364D01*
X609600Y245364D02*
X609854Y244602D01*
D16*
X765048Y752856D03*
X918972Y746760D03*
X554736Y245364D03*
D15*
X219456Y292354D02*
X219456Y348996D01*
X234696Y364236D01*
X234696Y396240D01*
X339852Y501396D01*
X342900Y501396D01*
X342900Y501650D01*
X342900Y527050D02*
X342900Y555625D01*
X367284Y678180D02*
X367284Y729996D01*
X367284Y678180D02*
X353568Y664464D01*
X353568Y597408D01*
X342900Y586740D01*
X342900Y555625D01*
X367284Y729996D02*
X368300Y730250D01*
X342900Y527050D02*
X342900Y501650D01*
X368808Y527304D02*
X368808Y554736D01*
X368300Y555625D01*
X368808Y527304D02*
X368300Y527050D01*
X393192Y714756D02*
X393192Y729996D01*
X393192Y714756D02*
X381000Y702564D01*
X381000Y646176D01*
X377952Y643128D01*
X377952Y565404D01*
X368808Y556260D01*
X393192Y729996D02*
X393700Y730250D01*
X368808Y556260D02*
X368300Y555625D01*
X571500Y617220D02*
X577596Y617220D01*
X615696Y655320D01*
X679704Y655320D01*
X708660Y626364D01*
X708660Y530352D01*
X588264Y409956D01*
X582168Y409956D01*
X545592Y373380D01*
X545592Y280416D01*
X518160Y252984D01*
X518160Y237744D01*
X467868Y187452D01*
X402336Y187452D01*
X390144Y175260D01*
X390144Y160020D01*
X385572Y155448D01*
X326136Y155448D01*
X313944Y167640D01*
X313944Y259080D01*
X297180Y275844D01*
X286512Y275844D01*
X271272Y291084D01*
X571500Y615950D02*
X571500Y617220D01*
X270256Y292354D02*
X271272Y291084D01*
X368808Y502920D02*
X368808Y525780D01*
X368300Y527050D01*
X368808Y502920D02*
X368300Y501650D01*
X394716Y527304D02*
X394716Y554736D01*
X393700Y555625D01*
X394716Y527304D02*
X393700Y527050D01*
X419100Y673608D02*
X419100Y730250D01*
X419100Y673608D02*
X403860Y658368D01*
X403860Y565404D01*
X394716Y556260D01*
X393700Y555625D01*
X394716Y525780D02*
X394716Y502920D01*
X393700Y501650D01*
X394716Y525780D02*
X393700Y527050D01*
X419100Y527050D02*
X419100Y501650D01*
X419100Y527050D02*
X419100Y555625D01*
X416052Y559308D02*
X416052Y618744D01*
X416052Y559308D02*
X419100Y556260D01*
X419100Y555625D01*
D16*
X416052Y618744D03*
D15*
X413004Y470916D02*
X413004Y441960D01*
X413004Y470916D02*
X443484Y501396D01*
X444500Y501650D01*
X445008Y527304D02*
X445008Y554736D01*
X444500Y555625D01*
X445008Y527304D02*
X444500Y527050D01*
X470916Y673608D02*
X470916Y729996D01*
X470916Y673608D02*
X480060Y664464D01*
X480060Y595884D01*
X445008Y560832D01*
X445008Y556260D01*
X470916Y729996D02*
X469900Y730250D01*
X445008Y556260D02*
X444500Y555625D01*
X445008Y525780D02*
X445008Y502920D01*
X444500Y501650D01*
X445008Y525780D02*
X444500Y527050D01*
D16*
X413004Y441960D03*
D15*
X470916Y502920D02*
X470916Y525780D01*
X470916Y502920D02*
X469900Y501650D01*
X470916Y525780D02*
X469900Y527050D01*
X470916Y527304D02*
X470916Y554736D01*
X469900Y555625D01*
X470916Y527304D02*
X469900Y527050D01*
X481584Y291084D02*
X481584Y266700D01*
X472440Y257556D01*
X472440Y237744D01*
X478536Y231648D01*
X486156Y231648D01*
X498348Y243840D01*
X498348Y259080D01*
X522732Y283464D01*
X522732Y338328D01*
X542544Y358140D01*
X542544Y417576D01*
X482092Y292354D02*
X481584Y291084D01*
X495300Y673608D02*
X495300Y730250D01*
X495300Y673608D02*
X483108Y661416D01*
X483108Y594360D01*
X470916Y582168D01*
X470916Y556260D01*
X469900Y555625D01*
D16*
X542544Y417576D03*
D15*
X495300Y527050D02*
X495300Y555625D01*
X483108Y489204D02*
X483108Y368808D01*
X483108Y489204D02*
X495300Y501396D01*
X483108Y368808D02*
X482092Y368554D01*
X693420Y615696D02*
X697992Y615696D01*
X693420Y615696D02*
X633984Y556260D01*
X568452Y556260D01*
X559308Y547116D01*
X559308Y518160D01*
X530352Y489204D01*
X507492Y489204D01*
X495300Y501396D01*
X697992Y615696D02*
X698500Y615950D01*
X495300Y501650D02*
X495300Y501396D01*
X521208Y685800D02*
X521208Y729996D01*
X521208Y685800D02*
X531876Y675132D01*
X531876Y647700D01*
X533400Y646176D01*
X533400Y591312D01*
X568452Y556260D01*
X521208Y729996D02*
X520700Y730250D01*
X495300Y527050D02*
X495300Y501650D01*
X521208Y527304D02*
X521208Y554736D01*
X520700Y555625D01*
X521208Y527304D02*
X520700Y527050D01*
X431292Y425196D02*
X431292Y368554D01*
X431292Y425196D02*
X470916Y464820D01*
X521208Y502920D02*
X521208Y525780D01*
X520700Y527050D01*
X521208Y502920D02*
X520700Y501650D01*
X547116Y731520D02*
X553212Y731520D01*
X568452Y746760D01*
X592836Y746760D01*
X656844Y682752D01*
X688848Y682752D01*
X723900Y647700D01*
X723900Y615950D01*
X547116Y731520D02*
X546100Y730250D01*
D16*
X470916Y464820D03*
D15*
X406908Y367284D02*
X406908Y292608D01*
X405892Y292354D01*
X406908Y367284D02*
X405892Y368554D01*
X507492Y368554D02*
X507492Y292354D01*
X195072Y292608D02*
X195072Y367284D01*
X195072Y292608D02*
X194056Y292354D01*
X195072Y367284D02*
X194056Y368554D01*
X298704Y472440D02*
X298704Y515112D01*
X298704Y472440D02*
X195072Y368808D01*
X194056Y368554D01*
X826008Y367284D02*
X826008Y292608D01*
X825500Y292100D01*
X826008Y367284D02*
X825500Y368300D01*
X928116Y367284D02*
X928116Y292608D01*
X927100Y292100D01*
X928116Y367284D02*
X927100Y368300D01*
X615696Y367284D02*
X615696Y292608D01*
X615950Y292100D01*
X615696Y367284D02*
X615950Y368300D01*
X717804Y367284D02*
X717804Y352044D01*
X717804Y292608D01*
X717550Y292100D01*
X717804Y367284D02*
X717550Y368300D01*
X790956Y554736D02*
X790956Y696468D01*
X790956Y554736D02*
X787908Y551688D01*
X787908Y486156D01*
X682752Y381000D01*
X682752Y358140D01*
X688848Y352044D01*
X717804Y352044D01*
X507492Y368554D02*
X507492Y425196D01*
X516636Y434340D01*
X562356Y434340D01*
X580644Y416052D01*
D16*
X298704Y515112D03*
X790956Y696468D03*
X580644Y416052D03*
D15*
X693420Y387096D02*
X693420Y368808D01*
X693420Y387096D02*
X798576Y492252D01*
X815340Y492252D01*
X824484Y501396D01*
X693420Y368808D02*
X692150Y368300D01*
X824484Y501396D02*
X825500Y501650D01*
X826008Y592836D02*
X826008Y615696D01*
X826008Y592836D02*
X835152Y583692D01*
X835152Y512064D01*
X826008Y502920D01*
X826008Y615696D02*
X825500Y615950D01*
X826008Y502920D02*
X825500Y501650D01*
X826008Y673608D02*
X826008Y729996D01*
X826008Y673608D02*
X835152Y664464D01*
X835152Y626364D01*
X826008Y617220D01*
X826008Y729996D02*
X825500Y730250D01*
X826008Y617220D02*
X825500Y615950D01*
X691896Y323088D02*
X691896Y292608D01*
X691896Y323088D02*
X656844Y358140D01*
X656844Y377952D01*
X768096Y489204D01*
X691896Y292608D02*
X692150Y292100D01*
X800100Y559308D02*
X800100Y615950D01*
X800100Y559308D02*
X790956Y550164D01*
X790956Y512064D01*
X800100Y502920D01*
X800100Y501650D01*
X800100Y673608D02*
X800100Y730250D01*
X800100Y673608D02*
X809244Y664464D01*
X809244Y626364D01*
X800100Y617220D01*
X800100Y615950D01*
D16*
X768096Y489204D03*
D15*
X641604Y348996D02*
X641604Y292608D01*
X641604Y348996D02*
X653796Y361188D01*
X653796Y384048D01*
X771144Y501396D01*
X774192Y501396D01*
X641604Y292608D02*
X641350Y292100D01*
X774192Y501396D02*
X774700Y501650D01*
X775716Y559308D02*
X775716Y615696D01*
X775716Y559308D02*
X784860Y550164D01*
X784860Y512064D01*
X775716Y502920D01*
X775716Y615696D02*
X774700Y615950D01*
X775716Y502920D02*
X774700Y501650D01*
X775716Y678180D02*
X775716Y729996D01*
X775716Y678180D02*
X787908Y665988D01*
X787908Y629412D01*
X775716Y617220D01*
X775716Y729996D02*
X774700Y730250D01*
X775716Y617220D02*
X774700Y615950D01*
X952500Y615950D02*
X952500Y559308D01*
X943356Y550164D01*
X943356Y512064D01*
X952500Y502920D01*
X952500Y501650D01*
X902208Y377952D02*
X902208Y368808D01*
X902208Y377952D02*
X912876Y388620D01*
X912876Y487680D01*
X926592Y501396D01*
X902208Y368808D02*
X901700Y368300D01*
X926592Y501396D02*
X927100Y501650D01*
X928116Y559308D02*
X928116Y615696D01*
X928116Y559308D02*
X937260Y550164D01*
X937260Y512064D01*
X928116Y502920D01*
X928116Y615696D02*
X927100Y615950D01*
X928116Y502920D02*
X927100Y501650D01*
X928116Y673608D02*
X928116Y729996D01*
X928116Y673608D02*
X937260Y664464D01*
X937260Y626364D01*
X928116Y617220D01*
X928116Y729996D02*
X927100Y730250D01*
X928116Y617220D02*
X927100Y615950D01*
X900684Y348996D02*
X900684Y292608D01*
X900684Y348996D02*
X891540Y358140D01*
X891540Y492252D01*
X900684Y501396D01*
X900684Y292608D02*
X901700Y292100D01*
X900684Y501396D02*
X901700Y501650D01*
X900684Y559308D02*
X900684Y615696D01*
X900684Y559308D02*
X891540Y550164D01*
X891540Y512064D01*
X900684Y502920D01*
X900684Y615696D02*
X901700Y615950D01*
X900684Y502920D02*
X901700Y501650D01*
X902208Y673608D02*
X902208Y729996D01*
X902208Y673608D02*
X911352Y664464D01*
X911352Y626364D01*
X902208Y617220D01*
X902208Y729996D02*
X901700Y730250D01*
X902208Y617220D02*
X901700Y615950D01*
X851916Y348996D02*
X851916Y292608D01*
X851916Y348996D02*
X865632Y362712D01*
X865632Y490728D01*
X876300Y501396D01*
X851916Y292608D02*
X850900Y292100D01*
X876300Y501396D02*
X876300Y501650D01*
X876300Y559308D02*
X876300Y615950D01*
X876300Y559308D02*
X886968Y548640D01*
X886968Y513588D01*
X876300Y502920D01*
X876300Y501650D01*
X876300Y697992D02*
X876300Y730250D01*
X876300Y697992D02*
X896112Y678180D01*
X896112Y669036D01*
X888492Y661416D01*
X888492Y629412D01*
X876300Y617220D01*
X876300Y615950D01*
X355092Y292354D02*
X355092Y268224D01*
X365760Y257556D01*
X365760Y237744D01*
X359664Y231648D01*
X352044Y231648D01*
X342900Y240792D01*
X342900Y271272D01*
X333756Y280416D01*
X333756Y330708D01*
X304800Y359664D01*
X304800Y379476D01*
X289560Y394716D01*
X272796Y394716D01*
D16*
X272796Y394716D03*
D15*
X278892Y697992D02*
X240792Y697992D01*
X797052Y224028D02*
X797052Y195072D01*
X797052Y224028D02*
X809244Y236220D01*
X809244Y358140D01*
X800100Y367284D01*
X279400Y698500D02*
X278892Y697992D01*
X800100Y368300D02*
X800100Y367284D01*
X769620Y679704D02*
X769620Y699516D01*
X769620Y679704D02*
X784860Y664464D01*
X784860Y644652D01*
X772668Y632460D01*
X771144Y632460D01*
X758952Y620268D01*
X758952Y612648D01*
X733044Y586740D01*
X733044Y496824D01*
X729996Y493776D01*
X769620Y454152D02*
X769620Y443484D01*
X789432Y423672D01*
X789432Y379476D01*
X800100Y368808D01*
X800100Y368300D01*
D16*
X240792Y697992D03*
X797052Y195072D03*
X769620Y699516D03*
X729996Y493776D03*
X769620Y454152D03*
D15*
X245364Y367284D02*
X245364Y362712D01*
X310896Y297180D01*
X310896Y266700D01*
X320040Y257556D01*
X320040Y181356D01*
X329184Y172212D01*
X245364Y367284D02*
X244856Y368554D01*
X329184Y172212D02*
X330200Y171450D01*
X321564Y352044D02*
X321564Y367284D01*
X321564Y352044D02*
X370332Y303276D01*
X370332Y182880D01*
X381000Y172212D01*
X321564Y367284D02*
X321056Y368554D01*
X381000Y172212D02*
X381000Y171450D01*
X483108Y248412D02*
X519684Y284988D01*
X519684Y355092D01*
X531876Y367284D01*
X483108Y248412D02*
X482600Y247650D01*
X531876Y367284D02*
X532892Y368554D01*
X432816Y268224D02*
X432816Y248412D01*
X432816Y268224D02*
X455676Y291084D01*
X432816Y248412D02*
X431800Y247650D01*
X455676Y291084D02*
X456692Y292354D01*
X381000Y291084D02*
X381000Y247650D01*
X381000Y291084D02*
X380492Y292354D01*
X667512Y352044D02*
X667512Y367284D01*
X667512Y352044D02*
X708660Y310896D01*
X708660Y211836D01*
X748284Y172212D01*
X667512Y367284D02*
X666750Y368300D01*
X748284Y172212D02*
X749300Y171450D01*
X743712Y347472D02*
X743712Y367284D01*
X743712Y347472D02*
X790956Y300228D01*
X790956Y181356D01*
X800100Y172212D01*
X743712Y367284D02*
X742950Y368300D01*
X800100Y172212D02*
X800100Y171450D01*
X902208Y248412D02*
X929640Y275844D01*
X931164Y275844D01*
X943356Y288036D01*
X943356Y358140D01*
X952500Y367284D01*
X902208Y248412D02*
X901700Y247650D01*
X952500Y367284D02*
X952500Y368300D01*
X851916Y266700D02*
X851916Y248412D01*
X851916Y266700D02*
X876300Y291084D01*
X851916Y248412D02*
X850900Y247650D01*
X876300Y291084D02*
X876300Y292100D01*
X800100Y292100D02*
X800100Y247650D01*
X368808Y655320D02*
X368808Y675132D01*
X377952Y684276D01*
X377952Y765048D01*
X368300Y774700D01*
X368808Y655320D02*
X368300Y654050D01*
X507492Y246888D02*
X489204Y228600D01*
X405384Y228600D01*
X390144Y243840D01*
X390144Y313944D01*
X332232Y371856D01*
X332232Y477012D01*
X355092Y499872D01*
X355092Y594360D01*
X358140Y597408D01*
X358140Y644652D01*
X367284Y653796D01*
X508000Y247650D02*
X507492Y246888D01*
X368300Y654050D02*
X367284Y653796D01*
X394716Y655320D02*
X394716Y711708D01*
X403860Y720852D01*
X403860Y765048D01*
X394716Y774192D01*
X394716Y655320D02*
X393700Y654050D01*
X394716Y774192D02*
X393700Y774700D01*
X457200Y272796D02*
X457200Y247650D01*
X457200Y272796D02*
X466344Y281940D01*
X466344Y303276D01*
X422148Y347472D01*
X382524Y473964D02*
X382524Y643128D01*
X393192Y653796D01*
X393700Y654050D01*
D16*
X422148Y347472D03*
X382524Y473964D03*
D15*
X406908Y272796D02*
X406908Y248412D01*
X406908Y272796D02*
X416052Y281940D01*
X416052Y377952D01*
X406908Y387096D01*
X406908Y641604D01*
X419100Y653796D01*
X406908Y248412D02*
X406400Y247650D01*
X419100Y653796D02*
X419100Y654050D01*
X419100Y749808D02*
X419100Y774700D01*
X419100Y749808D02*
X428244Y740664D01*
X428244Y664464D01*
X419100Y655320D01*
X419100Y654050D01*
X355092Y263652D02*
X355092Y248412D01*
X355092Y263652D02*
X336804Y281940D01*
X336804Y332232D01*
X310896Y358140D01*
X310896Y411480D01*
X326136Y426720D01*
X426720Y545592D02*
X426720Y550164D01*
X434340Y557784D01*
X434340Y608076D01*
X454152Y627888D01*
X454152Y644652D01*
X445008Y653796D01*
X355092Y248412D02*
X355600Y247650D01*
X445008Y653796D02*
X444500Y654050D01*
X445008Y749808D02*
X445008Y774192D01*
X445008Y749808D02*
X454152Y740664D01*
X454152Y664464D01*
X445008Y655320D01*
X445008Y774192D02*
X444500Y774700D01*
X445008Y655320D02*
X444500Y654050D01*
D16*
X326136Y426720D03*
X426720Y545592D03*
D15*
X509016Y202692D02*
X509016Y172212D01*
X509016Y202692D02*
X548640Y242316D01*
X548640Y371856D01*
X583692Y406908D01*
X589788Y406908D01*
X711708Y528828D01*
X711708Y627888D01*
X681228Y658368D01*
X600456Y658368D01*
X580644Y638556D01*
X562356Y638556D01*
X547116Y653796D01*
X509016Y172212D02*
X508000Y171450D01*
X547116Y653796D02*
X546100Y654050D01*
X545592Y749808D02*
X545592Y774192D01*
X545592Y749808D02*
X534924Y739140D01*
X534924Y665988D01*
X545592Y655320D01*
X545592Y774192D02*
X546100Y774700D01*
X545592Y655320D02*
X546100Y654050D01*
X534924Y530352D02*
X544068Y521208D01*
X534924Y530352D02*
X534924Y585216D01*
X530352Y589788D01*
X530352Y644652D01*
X521208Y653796D01*
X520700Y654050D01*
X519684Y749808D02*
X519684Y774192D01*
X519684Y749808D02*
X510540Y740664D01*
X510540Y691896D01*
X525780Y676656D01*
X525780Y659892D01*
X521208Y655320D01*
X519684Y774192D02*
X520700Y774700D01*
X521208Y655320D02*
X520700Y654050D01*
D16*
X544068Y521208D03*
D15*
X413004Y170688D02*
X406908Y170688D01*
X413004Y170688D02*
X428244Y155448D01*
X461772Y155448D01*
X472440Y166116D01*
X472440Y181356D01*
X516636Y225552D01*
X477012Y441960D02*
X477012Y495300D01*
X481584Y499872D01*
X481584Y588264D01*
X486156Y592836D01*
X486156Y644652D01*
X495300Y653796D01*
X406400Y171450D02*
X406908Y170688D01*
X495300Y653796D02*
X495300Y654050D01*
X495300Y749808D02*
X495300Y774700D01*
X495300Y749808D02*
X504444Y740664D01*
X504444Y664464D01*
X495300Y655320D01*
X495300Y654050D01*
D16*
X516636Y225552D03*
X477012Y441960D03*
D15*
X355092Y224028D02*
X355092Y172212D01*
X355092Y224028D02*
X339852Y239268D01*
X339852Y269748D01*
X330708Y278892D01*
X330708Y313944D01*
X280416Y364236D01*
X280416Y377952D01*
X252984Y405384D01*
X355092Y172212D02*
X355600Y171450D01*
X469392Y655320D02*
X469392Y670560D01*
X460248Y679704D01*
X460248Y765048D01*
X469900Y774700D01*
X469392Y655320D02*
X469900Y654050D01*
D16*
X252984Y405384D03*
D15*
X774192Y272796D02*
X774192Y248412D01*
X774192Y272796D02*
X752856Y294132D01*
X752856Y333756D01*
X733044Y353568D01*
X733044Y397764D01*
X854964Y597408D02*
X854964Y600456D01*
X861060Y606552D01*
X861060Y644652D01*
X851916Y653796D01*
X774192Y248412D02*
X774700Y247650D01*
X851916Y653796D02*
X850900Y654050D01*
X650748Y774192D02*
X647700Y774192D01*
X650748Y774192D02*
X678180Y746760D01*
X829056Y746760D01*
X841248Y734568D01*
X841248Y664464D01*
X850392Y655320D01*
X647700Y774192D02*
X647700Y774700D01*
X850392Y655320D02*
X850900Y654050D01*
D16*
X733044Y397764D03*
X854964Y597408D03*
D15*
X824484Y272796D02*
X824484Y248412D01*
X824484Y272796D02*
X815340Y281940D01*
X815340Y486156D01*
X815340Y515112D02*
X815340Y591312D01*
X812292Y594360D01*
X812292Y641604D01*
X824484Y653796D01*
X824484Y248412D02*
X825500Y247650D01*
X824484Y653796D02*
X825500Y654050D01*
X626364Y774192D02*
X623316Y774192D01*
X626364Y774192D02*
X656844Y743712D01*
X711708Y743712D01*
X739140Y716280D01*
X623316Y774192D02*
X622300Y774700D01*
D16*
X815340Y486156D03*
X815340Y515112D03*
X739140Y716280D03*
D15*
X632460Y280416D02*
X684276Y228600D01*
X632460Y280416D02*
X632460Y387096D01*
X736092Y490728D01*
X736092Y585216D01*
X754380Y603504D01*
X762000Y603504D01*
X600456Y774192D02*
X597408Y774192D01*
X600456Y774192D02*
X633984Y740664D01*
X696468Y740664D01*
X726948Y710184D01*
X597408Y774192D02*
X596900Y774700D01*
D16*
X684276Y228600D03*
X762000Y603504D03*
X726948Y710184D03*
D15*
X768096Y655320D02*
X771144Y655320D01*
X774192Y655320D01*
X768096Y655320D02*
X737616Y685800D01*
X658368Y685800D01*
X571500Y772668D01*
X571500Y774700D01*
X774192Y655320D02*
X774700Y654050D01*
X632460Y445008D02*
X632460Y440436D01*
X632460Y445008D02*
X714756Y527304D01*
X714756Y586740D01*
X739140Y611124D01*
X739140Y623316D01*
X771144Y655320D01*
X774700Y654050D01*
D16*
X632460Y440436D03*
D15*
X928116Y202692D02*
X928116Y172212D01*
X928116Y202692D02*
X966216Y240792D01*
X966216Y640080D01*
X952500Y653796D01*
X928116Y172212D02*
X927100Y171450D01*
X952500Y653796D02*
X952500Y654050D01*
X752856Y774192D02*
X749808Y774192D01*
X752856Y774192D02*
X774192Y752856D01*
X925068Y752856D01*
X940308Y737616D01*
X940308Y667512D01*
X952500Y655320D01*
X749808Y774192D02*
X749300Y774700D01*
X952500Y655320D02*
X952500Y654050D01*
X876300Y176784D02*
X876300Y171450D01*
X876300Y176784D02*
X943356Y243840D01*
X943356Y263652D01*
X963168Y283464D01*
X963168Y504444D01*
X949452Y518160D01*
X733044Y713232D02*
X723900Y722376D01*
X733044Y713232D02*
X733044Y699516D01*
X755904Y595884D02*
X755904Y568452D01*
X739140Y551688D01*
X739140Y536448D01*
X754380Y521208D01*
X854964Y521208D02*
X880872Y521208D01*
D16*
X949452Y518160D03*
X723900Y722376D03*
X733044Y699516D03*
X755904Y595884D03*
X754380Y521208D03*
X854964Y521208D03*
X880872Y521208D03*
D15*
X826008Y176784D02*
X826008Y172212D01*
X826008Y176784D02*
X891540Y242316D01*
X891540Y262128D01*
X915924Y286512D01*
X915924Y477012D01*
X940308Y501396D01*
X940308Y620268D01*
X826008Y172212D02*
X825500Y171450D01*
X818388Y591312D02*
X818388Y597408D01*
X818388Y591312D02*
X824484Y585216D01*
D16*
X940308Y620268D03*
X818388Y597408D03*
X824484Y585216D03*
D15*
X780288Y170688D02*
X775716Y170688D01*
X780288Y170688D02*
X795528Y155448D01*
X804672Y155448D01*
X815340Y166116D01*
X815340Y217932D01*
X838200Y240792D01*
X838200Y571500D01*
X842772Y576072D02*
X864108Y597408D01*
X842772Y576072D02*
X838200Y571500D01*
X864108Y597408D02*
X864108Y641604D01*
X876300Y653796D01*
X774700Y171450D02*
X775716Y170688D01*
X876300Y653796D02*
X876300Y654050D01*
X702564Y585216D02*
X688848Y598932D01*
X841248Y577596D02*
X842772Y576072D01*
D16*
X688848Y598932D03*
X702564Y585216D03*
X841248Y577596D03*
D15*
X851916Y541020D02*
X876300Y541020D01*
X876300Y539750D01*
X851916Y541020D02*
X850900Y539750D01*
X902208Y541020D02*
X926592Y541020D01*
X902208Y541020D02*
X901700Y539750D01*
X926592Y541020D02*
X927100Y539750D01*
X697992Y541020D02*
X673608Y541020D01*
X673100Y539750D01*
X697992Y541020D02*
X698500Y539750D01*
X749808Y539496D02*
X774192Y539496D01*
X749808Y539496D02*
X749300Y539750D01*
X774192Y539496D02*
X774700Y539750D01*
X647700Y541020D02*
X623316Y541020D01*
X622300Y539750D01*
X595884Y541020D02*
X571500Y541020D01*
X571500Y539750D01*
X595884Y541020D02*
X596900Y539750D01*
X597408Y541020D02*
X621792Y541020D01*
X622300Y539750D01*
X597408Y541020D02*
X596900Y539750D01*
X647700Y541020D02*
X672084Y541020D01*
X673100Y539750D01*
X647700Y539750D02*
X647700Y541020D01*
X653796Y699516D02*
X603504Y749808D01*
X653796Y699516D02*
X685800Y699516D01*
X685800Y698500D01*
D16*
X603504Y749808D03*
D15*
X769620Y592836D02*
X769620Y573024D01*
X752856Y556260D01*
X583692Y531876D02*
X553212Y501396D01*
X533400Y501396D02*
X524256Y492252D01*
X516636Y492252D01*
X505968Y502920D01*
X505968Y566928D01*
X487680Y585216D01*
D16*
X769620Y592836D03*
X752856Y556260D03*
X583692Y531876D03*
X553212Y501396D03*
X533400Y501396D03*
X487680Y585216D03*
D15*
X280416Y736092D02*
X280416Y748284D01*
X280416Y736092D02*
X342900Y673608D01*
X342900Y654050D01*
X280416Y748284D02*
X279400Y749300D01*
X762000Y739140D02*
X762000Y719328D01*
X734568Y691896D01*
X707136Y691896D01*
X675132Y649224D02*
X635508Y649224D01*
X606552Y620268D01*
X606552Y605028D01*
X600456Y598932D01*
X539496Y598932D01*
D16*
X762000Y739140D03*
X707136Y691896D03*
X675132Y649224D03*
X539496Y598932D03*
D15*
X278892Y507492D02*
X248412Y507492D01*
X193548Y452628D01*
X190500Y452628D01*
X181356Y443484D01*
X181356Y274320D01*
X309372Y146304D01*
X947928Y146304D01*
X969264Y167640D01*
X969264Y643128D01*
X961644Y650748D01*
X961644Y701040D01*
X943356Y719328D01*
X943356Y739140D01*
X926592Y755904D01*
X794004Y755904D01*
X775716Y774192D01*
X279400Y508000D02*
X278892Y507492D01*
X774700Y774700D02*
X775716Y774192D01*
X504444Y658368D02*
X504444Y592836D01*
X504444Y658368D02*
X519684Y673608D01*
X566928Y673608D02*
X571500Y673608D01*
X606552Y708660D01*
X626364Y708660D01*
X661416Y673608D01*
X685800Y673608D01*
X685800Y673100D01*
X890016Y675132D02*
X890016Y667512D01*
X885444Y662940D01*
X885444Y643128D01*
X874776Y632460D01*
X873252Y632460D01*
X867156Y626364D01*
X867156Y594360D01*
X870204Y591312D01*
X870204Y585216D01*
X844296Y559308D01*
X553212Y521208D02*
X547116Y515112D01*
X541020Y515112D01*
X531876Y524256D01*
X531876Y565404D01*
X504444Y592836D01*
D16*
X504444Y592836D03*
X519684Y673608D03*
X566928Y673608D03*
X890016Y675132D03*
X844296Y559308D03*
X553212Y521208D03*
D15*
X164592Y533400D02*
X164592Y557784D01*
X164592Y533400D02*
X165100Y533400D01*
X164592Y557784D02*
X165100Y558800D01*
X202692Y603504D02*
X202692Y609600D01*
X202692Y603504D02*
X181356Y582168D01*
X181356Y574548D01*
X166116Y559308D01*
X202692Y609600D02*
X203200Y609600D01*
X166116Y559308D02*
X165100Y558800D01*
X280416Y539496D02*
X280416Y533400D01*
X280416Y539496D02*
X295656Y554736D01*
X295656Y594360D01*
X280416Y609600D01*
X280416Y533400D02*
X279400Y533400D01*
X279400Y609600D02*
X280416Y609600D01*
X278892Y585216D02*
X252984Y585216D01*
X203200Y635000D01*
X278892Y585216D02*
X279400Y584200D01*
X166116Y609600D02*
X166116Y615696D01*
X187452Y637032D01*
X187452Y638556D01*
X193548Y644652D01*
X227076Y644652D01*
X252984Y618744D01*
X347472Y618744D01*
X541020Y699516D02*
X571500Y729996D01*
X166116Y609600D02*
X165100Y609600D01*
X571500Y729996D02*
X571500Y730250D01*
X844296Y568452D02*
X864108Y588264D01*
X702564Y576072D02*
X688848Y589788D01*
D16*
X347472Y618744D03*
X541020Y699516D03*
X864108Y588264D03*
X844296Y568452D03*
X702564Y576072D03*
X688848Y589788D03*
D15*
X723900Y170688D02*
X729996Y170688D01*
X745236Y155448D01*
X752856Y155448D01*
X758952Y161544D01*
X758952Y237744D01*
X749808Y246888D01*
X723900Y171450D02*
X723900Y170688D01*
X749808Y246888D02*
X749300Y247650D01*
X329184Y246888D02*
X329184Y196596D01*
X329184Y246888D02*
X330200Y247650D01*
X208788Y583692D02*
X204216Y583692D01*
X208788Y583692D02*
X271272Y521208D01*
X301752Y521208D01*
X304800Y518160D01*
X304800Y473964D01*
X210312Y379476D01*
X210312Y281940D01*
X227076Y265176D01*
X249936Y265176D01*
X262128Y252984D01*
X262128Y214884D01*
X304800Y172212D01*
X204216Y583692D02*
X203200Y584200D01*
X304800Y172212D02*
X304800Y171450D01*
D16*
X329184Y196596D03*
D15*
X775716Y400812D02*
X775716Y425196D01*
X774700Y425450D01*
X775716Y400812D02*
X774700Y400050D01*
X800100Y400050D02*
X800100Y425450D01*
X826008Y425196D02*
X826008Y400812D01*
X826008Y425196D02*
X825500Y425450D01*
X826008Y400812D02*
X825500Y400050D01*
X851916Y400812D02*
X851916Y425196D01*
X850900Y425450D01*
X851916Y400812D02*
X850900Y400050D01*
X876300Y400050D02*
X876300Y425450D01*
X902208Y425196D02*
X902208Y400812D01*
X902208Y425196D02*
X901700Y425450D01*
X902208Y400812D02*
X901700Y400050D01*
X928116Y400812D02*
X928116Y425196D01*
X927100Y425450D01*
X928116Y400812D02*
X927100Y400050D01*
X952500Y400050D02*
X952500Y425450D01*
X342900Y425450D02*
X342900Y396875D01*
X368808Y397764D02*
X368808Y425196D01*
X368300Y425450D01*
X368808Y397764D02*
X368300Y396875D01*
X394716Y397764D02*
X394716Y425196D01*
X393700Y425450D01*
X394716Y397764D02*
X393700Y396875D01*
X419100Y396875D02*
X419100Y425450D01*
X445008Y425196D02*
X445008Y397764D01*
X445008Y425196D02*
X444500Y425450D01*
X445008Y397764D02*
X444500Y396875D01*
X470916Y397764D02*
X470916Y425196D01*
X469900Y425450D01*
X470916Y397764D02*
X469900Y396875D01*
X495300Y396875D02*
X495300Y425450D01*
X521208Y425196D02*
X521208Y397764D01*
X521208Y425196D02*
X520700Y425450D01*
X521208Y397764D02*
X520700Y396875D01*
M02*
