M48
;GenerationSoftware,Autodesk,EAGLE,9.6.2*%
;CreationDate,2021-11-03T19:07:11Z*%
FMAT,2
ICI,OFF
METRIC,TZ,000.000
T5C0.350
T4C0.813
T3C1.016
T2C3.000
%
G90
M71
T2
X92710Y10160
X5080Y74930
X5080Y30480
T3
X95250Y77470
X36830Y52705
X52070Y52705
X49530Y52705
X46990Y52705
X44450Y52705
X41910Y52705
X39370Y52705
X34290Y52705
X77470Y77470
X80010Y77470
X52070Y39688
X49530Y39688
X46990Y39688
X44450Y39688
X41910Y39688
X39370Y39688
X36830Y39688
X34290Y39688
X82550Y77470
X85090Y77470
X87630Y77470
X90170Y77470
X92710Y77470
X54610Y77470
X80010Y40005
X97790Y77470
X57150Y77470
X59690Y77470
X62230Y77470
X64770Y77470
X67310Y77470
X69850Y77470
X72390Y77470
X77470Y40005
X52070Y77470
X49530Y77470
X46990Y77470
X44450Y77470
X41910Y77470
X39370Y77470
X36830Y77470
X74930Y77470
X95250Y40005
X92710Y40005
X90170Y40005
X82550Y40005
X87630Y40005
X85090Y40005
T4
X33020Y24765
X59690Y61595
X59690Y53975
X92710Y17145
X95250Y17145
X95250Y24765
X92710Y24765
X90170Y24765
X85090Y24765
X57150Y53975
X57150Y61595
X54610Y53975
X54610Y61595
X72390Y24765
X74930Y24765
X77470Y24765
X80010Y24765
X82550Y24765
X87630Y24765
X77470Y36830
X30480Y17145
X95250Y29210
X92710Y29210
X90170Y29210
X87630Y29210
X85090Y29210
X82550Y29210
X80010Y29210
X77470Y29210
X85090Y36830
X82550Y36830
X87630Y36830
X90170Y36830
X33020Y17145
X80010Y36830
X92710Y36830
X95250Y36830
X74295Y29210
X71755Y29210
X69215Y29210
X66675Y29210
X64135Y29210
X61595Y29210
X59055Y29210
X56515Y29210
X64135Y36830
X43180Y24765
X85090Y17145
X80010Y17145
X77470Y17145
X90170Y17145
X87630Y17145
X74930Y17145
X72390Y17145
X30480Y24765
X67310Y53975
X35560Y24765
X38100Y24765
X40640Y24765
X82550Y17145
X45720Y24765
X48260Y24765
X50800Y24765
X53340Y24765
X53340Y17145
X50800Y17145
X40640Y17145
X43180Y17145
X38100Y17145
X35560Y17145
X48260Y17145
X45720Y17145
X60960Y69850
X49530Y63182
X52070Y55562
X52070Y63182
X20320Y74930
X27940Y74930
X20320Y72390
X27940Y72390
X20320Y69850
X27940Y69850
X20320Y67310
X27940Y67310
X49530Y55562
X68580Y69850
X60960Y67310
X68580Y67310
X8890Y48260
X8890Y50800
X8890Y53340
X8890Y55880
X8890Y58420
X8890Y60960
X16510Y58420
X16510Y60960
X34290Y63182
X19406Y44272
X16866Y44272
X30582Y76886
X33122Y76886
X63576Y73152
X66116Y73152
X63525Y24460
X60985Y24460
X24638Y25527
X27178Y25527
X34290Y55562
X16510Y55880
X36830Y55562
X36830Y63182
X39370Y55562
X39370Y63182
X41910Y55562
X41910Y63182
X44450Y55562
X44450Y63182
X46990Y55562
X46990Y63182
X80010Y61595
X92710Y53975
X92710Y61595
X90170Y53975
X90170Y61595
X87630Y53975
X87630Y61595
X85090Y53975
X85090Y61595
X82550Y53975
X82550Y61595
X80010Y53975
X95250Y61595
X77470Y53975
X77470Y61595
X72390Y53975
X72390Y61595
X69850Y53975
X69850Y61595
X45669Y36855
X67310Y61595
X64770Y53975
X64770Y61595
X62230Y53975
X27940Y58420
X16510Y53340
X8890Y63500
X16510Y63500
X16510Y50800
X16510Y48260
X20320Y48260
X20320Y50800
X20320Y53340
X20320Y55880
X20320Y58420
X20320Y60960
X62230Y61595
X27940Y60960
X27940Y55880
X27940Y53340
X20320Y63500
X27940Y63500
X27940Y50800
X27940Y48260
X74930Y53975
X74930Y61595
X95250Y53975
X34290Y42545
X95250Y65405
X97790Y65405
X97790Y73025
X95250Y73025
X92710Y73025
X90170Y73025
X87630Y73025
X85090Y73025
X82550Y73025
X80010Y73025
X77470Y73025
X74930Y73025
X34290Y50165
X85090Y65405
X36830Y50165
X36830Y42545
X39370Y50165
X39370Y42545
X41910Y50165
X41910Y42545
X44450Y50165
X44450Y42545
X46990Y50165
X46990Y42545
X49530Y50165
X49530Y42545
X52070Y50165
X49530Y73025
X34290Y65405
X36830Y65405
X49530Y65405
X52070Y65405
X39370Y65405
X41910Y65405
X46990Y65405
X44450Y65405
X54610Y65405
X57150Y65405
X57150Y73025
X54610Y73025
X52070Y73025
X66675Y36830
X46990Y73025
X44450Y73025
X41910Y73025
X39370Y73025
X36830Y73025
X34290Y73025
X74930Y65405
X77470Y65405
X90170Y65405
X92710Y65405
X80010Y65405
X82550Y65405
X87630Y65405
X35509Y29235
X21946Y29235
X24486Y29235
X27026Y29235
X29566Y29235
X32106Y29235
X53289Y36855
X50749Y36855
X38049Y36855
X35509Y36855
X48209Y36855
X52070Y42545
X40589Y36855
X43129Y36855
X77470Y50165
X38049Y29235
X40589Y29235
X43129Y29235
X45669Y29235
X48209Y29235
X50749Y29235
X53289Y29235
X74295Y36830
X71755Y36830
X59055Y36830
X56515Y36830
X69215Y36830
X61595Y36830
X16866Y29235
X19406Y29235
X77470Y42545
X80010Y50165
X80010Y42545
X82550Y50165
X82550Y42545
X85090Y50165
X85090Y42545
X87630Y50165
X87630Y42545
X90170Y50165
X90170Y42545
X92710Y50165
X95250Y50165
X92710Y42545
X14326Y29235
X21946Y36855
X19406Y36855
X24486Y36855
X27026Y36855
X14326Y36855
X16866Y36855
X29566Y36855
X32106Y36855
X95250Y42545
T5
X38252Y47396
X32614Y42672
X42672Y54559
X54407Y52121
X51664Y22555
X47701Y44196
X25298Y40538
X73304Y39776
X85496Y59741
X81534Y48616
X81534Y51511
X73914Y71628
X68428Y22860
X76200Y60350
X72695Y71018
X63246Y44044
X94945Y51816
X72390Y72238
X79096Y69647
X76505Y75286
X91897Y74676
X55474Y24536
X41605Y61874
X41300Y44196
X54254Y41758
X47092Y46482
X29870Y51511
X42215Y34747
X58064Y41605
X76810Y48920
X27280Y39472
X24079Y69799
X79705Y19507
X76962Y69952
X73000Y49378
X76962Y45415
X55321Y52121
X70714Y69190
X67513Y64922
X53950Y59893
X50444Y59284
X51968Y67361
X56693Y67361
X89002Y67513
X84430Y55931
X76200Y73914
X34747Y61874
X54102Y69952
X86411Y58826
X84430Y56845
X70256Y57607
X68885Y58979
X32918Y19660
X69494Y72238
X70256Y58522
X75590Y59588
X75438Y52121
X85496Y52121
X88087Y52121
X94031Y62027
X81839Y59741
X82448Y58522
X68885Y59893
X73304Y69952
X84125Y57760
X60350Y74981
X76962Y59284
X75286Y55626
X58369Y53188
X55321Y50140
X53340Y50140
X48768Y58522
M30