G04 EAGLE Gerber RS-274X export*
G75*
%MOMM*%
%FSLAX34Y34*%
%LPD*%
%IN*%
%IPPOS*%
%AMOC8*
5,1,8,0,0,1.08239X$1,22.5*%
G01*
%ADD10C,0.254000*%


D10*
X0Y50800D02*
X1003300Y50900D01*
X1003300Y800100D01*
X0Y800100D01*
X0Y50800D01*
X942100Y101064D02*
X942024Y99996D01*
X941871Y98935D01*
X941643Y97888D01*
X941341Y96860D01*
X940967Y95856D01*
X940522Y94881D01*
X940008Y93941D01*
X939429Y93040D01*
X938787Y92182D01*
X938085Y91372D01*
X937328Y90615D01*
X936518Y89913D01*
X935660Y89271D01*
X934759Y88692D01*
X933819Y88178D01*
X932844Y87733D01*
X931840Y87359D01*
X930812Y87057D01*
X929765Y86829D01*
X928704Y86676D01*
X927636Y86600D01*
X926564Y86600D01*
X925496Y86676D01*
X924435Y86829D01*
X923388Y87057D01*
X922360Y87359D01*
X921356Y87733D01*
X920381Y88178D01*
X919441Y88692D01*
X918540Y89271D01*
X917682Y89913D01*
X916872Y90615D01*
X916115Y91372D01*
X915413Y92182D01*
X914771Y93040D01*
X914192Y93941D01*
X913678Y94881D01*
X913233Y95856D01*
X912859Y96860D01*
X912557Y97888D01*
X912329Y98935D01*
X912176Y99996D01*
X912100Y101064D01*
X912100Y102136D01*
X912176Y103204D01*
X912329Y104265D01*
X912557Y105312D01*
X912859Y106340D01*
X913233Y107344D01*
X913678Y108319D01*
X914192Y109259D01*
X914771Y110160D01*
X915413Y111018D01*
X916115Y111828D01*
X916872Y112585D01*
X917682Y113287D01*
X918540Y113929D01*
X919441Y114508D01*
X920381Y115022D01*
X921356Y115467D01*
X922360Y115841D01*
X923388Y116143D01*
X924435Y116371D01*
X925496Y116524D01*
X926564Y116600D01*
X927636Y116600D01*
X928704Y116524D01*
X929765Y116371D01*
X930812Y116143D01*
X931840Y115841D01*
X932844Y115467D01*
X933819Y115022D01*
X934759Y114508D01*
X935660Y113929D01*
X936518Y113287D01*
X937328Y112585D01*
X938085Y111828D01*
X938787Y111018D01*
X939429Y110160D01*
X940008Y109259D01*
X940522Y108319D01*
X940967Y107344D01*
X941341Y106340D01*
X941643Y105312D01*
X941871Y104265D01*
X942024Y103204D01*
X942100Y102136D01*
X942100Y101064D01*
X65800Y748764D02*
X65724Y747696D01*
X65571Y746635D01*
X65343Y745588D01*
X65041Y744560D01*
X64667Y743556D01*
X64222Y742581D01*
X63708Y741641D01*
X63129Y740740D01*
X62487Y739882D01*
X61785Y739072D01*
X61028Y738315D01*
X60218Y737613D01*
X59360Y736971D01*
X58459Y736392D01*
X57519Y735878D01*
X56544Y735433D01*
X55540Y735059D01*
X54512Y734757D01*
X53465Y734529D01*
X52404Y734376D01*
X51336Y734300D01*
X50264Y734300D01*
X49196Y734376D01*
X48135Y734529D01*
X47088Y734757D01*
X46060Y735059D01*
X45056Y735433D01*
X44081Y735878D01*
X43141Y736392D01*
X42240Y736971D01*
X41382Y737613D01*
X40572Y738315D01*
X39815Y739072D01*
X39113Y739882D01*
X38471Y740740D01*
X37892Y741641D01*
X37378Y742581D01*
X36933Y743556D01*
X36559Y744560D01*
X36257Y745588D01*
X36029Y746635D01*
X35876Y747696D01*
X35800Y748764D01*
X35800Y749836D01*
X35876Y750904D01*
X36029Y751965D01*
X36257Y753012D01*
X36559Y754040D01*
X36933Y755044D01*
X37378Y756019D01*
X37892Y756959D01*
X38471Y757860D01*
X39113Y758718D01*
X39815Y759528D01*
X40572Y760285D01*
X41382Y760987D01*
X42240Y761629D01*
X43141Y762208D01*
X44081Y762722D01*
X45056Y763167D01*
X46060Y763541D01*
X47088Y763843D01*
X48135Y764071D01*
X49196Y764224D01*
X50264Y764300D01*
X51336Y764300D01*
X52404Y764224D01*
X53465Y764071D01*
X54512Y763843D01*
X55540Y763541D01*
X56544Y763167D01*
X57519Y762722D01*
X58459Y762208D01*
X59360Y761629D01*
X60218Y760987D01*
X61028Y760285D01*
X61785Y759528D01*
X62487Y758718D01*
X63129Y757860D01*
X63708Y756959D01*
X64222Y756019D01*
X64667Y755044D01*
X65041Y754040D01*
X65343Y753012D01*
X65571Y751965D01*
X65724Y750904D01*
X65800Y749836D01*
X65800Y748764D01*
X65800Y304264D02*
X65724Y303196D01*
X65571Y302135D01*
X65343Y301088D01*
X65041Y300060D01*
X64667Y299056D01*
X64222Y298081D01*
X63708Y297141D01*
X63129Y296240D01*
X62487Y295382D01*
X61785Y294572D01*
X61028Y293815D01*
X60218Y293113D01*
X59360Y292471D01*
X58459Y291892D01*
X57519Y291378D01*
X56544Y290933D01*
X55540Y290559D01*
X54512Y290257D01*
X53465Y290029D01*
X52404Y289876D01*
X51336Y289800D01*
X50264Y289800D01*
X49196Y289876D01*
X48135Y290029D01*
X47088Y290257D01*
X46060Y290559D01*
X45056Y290933D01*
X44081Y291378D01*
X43141Y291892D01*
X42240Y292471D01*
X41382Y293113D01*
X40572Y293815D01*
X39815Y294572D01*
X39113Y295382D01*
X38471Y296240D01*
X37892Y297141D01*
X37378Y298081D01*
X36933Y299056D01*
X36559Y300060D01*
X36257Y301088D01*
X36029Y302135D01*
X35876Y303196D01*
X35800Y304264D01*
X35800Y305336D01*
X35876Y306404D01*
X36029Y307465D01*
X36257Y308512D01*
X36559Y309540D01*
X36933Y310544D01*
X37378Y311519D01*
X37892Y312459D01*
X38471Y313360D01*
X39113Y314218D01*
X39815Y315028D01*
X40572Y315785D01*
X41382Y316487D01*
X42240Y317129D01*
X43141Y317708D01*
X44081Y318222D01*
X45056Y318667D01*
X46060Y319041D01*
X47088Y319343D01*
X48135Y319571D01*
X49196Y319724D01*
X50264Y319800D01*
X51336Y319800D01*
X52404Y319724D01*
X53465Y319571D01*
X54512Y319343D01*
X55540Y319041D01*
X56544Y318667D01*
X57519Y318222D01*
X58459Y317708D01*
X59360Y317129D01*
X60218Y316487D01*
X61028Y315785D01*
X61785Y315028D01*
X62487Y314218D01*
X63129Y313360D01*
X63708Y312459D01*
X64222Y311519D01*
X64667Y310544D01*
X65041Y309540D01*
X65343Y308512D01*
X65571Y307465D01*
X65724Y306404D01*
X65800Y305336D01*
X65800Y304264D01*
M02*
