G04 EAGLE Gerber RS-274X export*
G75*
%MOMM*%
%FSLAX34Y34*%
%LPD*%
%INSoldermask Top*%
%IPPOS*%
%AMOC8*
5,1,8,0,0,1.08239X$1,22.5*%
G01*
%ADD10C,1.524000*%
%ADD11C,1.727200*%
%ADD12P,1.649562X8X292.500000*%
%ADD13P,1.649562X8X202.500000*%
%ADD14C,3.203200*%
%ADD15C,0.959600*%


D10*
X342900Y647446D02*
X342900Y660654D01*
X368300Y660654D02*
X368300Y647446D01*
X495300Y647446D02*
X495300Y660654D01*
X520700Y660654D02*
X520700Y647446D01*
X393700Y647446D02*
X393700Y660654D01*
X419100Y660654D02*
X419100Y647446D01*
X469900Y647446D02*
X469900Y660654D01*
X444500Y660654D02*
X444500Y647446D01*
X546100Y647446D02*
X546100Y660654D01*
X571500Y660654D02*
X571500Y647446D01*
X571500Y723646D02*
X571500Y736854D01*
X546100Y736854D02*
X546100Y723646D01*
X520700Y723646D02*
X520700Y736854D01*
X495300Y736854D02*
X495300Y723646D01*
X469900Y723646D02*
X469900Y736854D01*
X444500Y736854D02*
X444500Y723646D01*
X419100Y723646D02*
X419100Y736854D01*
X393700Y736854D02*
X393700Y723646D01*
X368300Y723646D02*
X368300Y736854D01*
X342900Y736854D02*
X342900Y723646D01*
X749300Y660654D02*
X749300Y647446D01*
X774700Y647446D02*
X774700Y660654D01*
X901700Y660654D02*
X901700Y647446D01*
X927100Y647446D02*
X927100Y660654D01*
X800100Y660654D02*
X800100Y647446D01*
X825500Y647446D02*
X825500Y660654D01*
X876300Y660654D02*
X876300Y647446D01*
X850900Y647446D02*
X850900Y660654D01*
X952500Y660654D02*
X952500Y647446D01*
X977900Y647446D02*
X977900Y660654D01*
X977900Y723646D02*
X977900Y736854D01*
X952500Y736854D02*
X952500Y723646D01*
X927100Y723646D02*
X927100Y736854D01*
X901700Y736854D02*
X901700Y723646D01*
X876300Y723646D02*
X876300Y736854D01*
X850900Y736854D02*
X850900Y723646D01*
X825500Y723646D02*
X825500Y736854D01*
X800100Y736854D02*
X800100Y723646D01*
X774700Y723646D02*
X774700Y736854D01*
X749300Y736854D02*
X749300Y723646D01*
D11*
X546100Y767080D02*
X546100Y782320D01*
X520700Y782320D02*
X520700Y767080D01*
X495300Y767080D02*
X495300Y782320D01*
X469900Y782320D02*
X469900Y767080D01*
X444500Y767080D02*
X444500Y782320D01*
X419100Y782320D02*
X419100Y767080D01*
X393700Y767080D02*
X393700Y782320D01*
X368300Y782320D02*
X368300Y767080D01*
X749300Y767080D02*
X749300Y782320D01*
X723900Y782320D02*
X723900Y767080D01*
X698500Y767080D02*
X698500Y782320D01*
X673100Y782320D02*
X673100Y767080D01*
X647700Y767080D02*
X647700Y782320D01*
X622300Y782320D02*
X622300Y767080D01*
X596900Y767080D02*
X596900Y782320D01*
X571500Y782320D02*
X571500Y767080D01*
X596900Y96520D02*
X596900Y81280D01*
X622300Y81280D02*
X622300Y96520D01*
X647700Y96520D02*
X647700Y81280D01*
X673100Y81280D02*
X673100Y96520D01*
X698500Y96520D02*
X698500Y81280D01*
X723900Y81280D02*
X723900Y96520D01*
X749300Y96520D02*
X749300Y81280D01*
X774700Y81280D02*
X774700Y96520D01*
D12*
X342900Y196850D03*
X342900Y120650D03*
X368300Y196850D03*
X368300Y120650D03*
X393700Y196850D03*
X393700Y120650D03*
X419100Y196850D03*
X419100Y120650D03*
X444500Y196850D03*
X444500Y120650D03*
X469900Y196850D03*
X469900Y120650D03*
X495300Y196850D03*
X495300Y120650D03*
X520700Y196850D03*
X520700Y120650D03*
X596900Y196850D03*
X596900Y120650D03*
X622300Y196850D03*
X622300Y120650D03*
X647700Y196850D03*
X647700Y120650D03*
X673100Y196850D03*
X673100Y120650D03*
X698500Y196850D03*
X698500Y120650D03*
X723900Y196850D03*
X723900Y120650D03*
X749300Y196850D03*
X749300Y120650D03*
X774700Y196850D03*
X774700Y120650D03*
D11*
X342900Y96520D02*
X342900Y81280D01*
X368300Y81280D02*
X368300Y96520D01*
X393700Y96520D02*
X393700Y81280D01*
X419100Y81280D02*
X419100Y96520D01*
X444500Y96520D02*
X444500Y81280D01*
X469900Y81280D02*
X469900Y96520D01*
X495300Y96520D02*
X495300Y81280D01*
X520700Y81280D02*
X520700Y96520D01*
D10*
X321056Y361950D02*
X321056Y375158D01*
X295656Y375158D02*
X295656Y361950D01*
X168656Y361950D02*
X168656Y375158D01*
X143256Y375158D02*
X143256Y361950D01*
X270256Y361950D02*
X270256Y375158D01*
X244856Y375158D02*
X244856Y361950D01*
X194056Y361950D02*
X194056Y375158D01*
X219456Y375158D02*
X219456Y361950D01*
X143256Y298958D02*
X143256Y285750D01*
X168656Y285750D02*
X168656Y298958D01*
X194056Y298958D02*
X194056Y285750D01*
X219456Y285750D02*
X219456Y298958D01*
X244856Y298958D02*
X244856Y285750D01*
X270256Y285750D02*
X270256Y298958D01*
X295656Y298958D02*
X295656Y285750D01*
X321056Y285750D02*
X321056Y298958D01*
X532892Y361950D02*
X532892Y375158D01*
X507492Y375158D02*
X507492Y361950D01*
X380492Y361950D02*
X380492Y375158D01*
X355092Y375158D02*
X355092Y361950D01*
X482092Y361950D02*
X482092Y375158D01*
X456692Y375158D02*
X456692Y361950D01*
X405892Y361950D02*
X405892Y375158D01*
X431292Y375158D02*
X431292Y361950D01*
X355092Y298958D02*
X355092Y285750D01*
X380492Y285750D02*
X380492Y298958D01*
X405892Y298958D02*
X405892Y285750D01*
X431292Y285750D02*
X431292Y298958D01*
X456692Y298958D02*
X456692Y285750D01*
X482092Y285750D02*
X482092Y298958D01*
X507492Y298958D02*
X507492Y285750D01*
X532892Y285750D02*
X532892Y298958D01*
X742950Y361696D02*
X742950Y374904D01*
X717550Y374904D02*
X717550Y361696D01*
X590550Y361696D02*
X590550Y374904D01*
X565150Y374904D02*
X565150Y361696D01*
X692150Y361696D02*
X692150Y374904D01*
X666750Y374904D02*
X666750Y361696D01*
X615950Y361696D02*
X615950Y374904D01*
X641350Y374904D02*
X641350Y361696D01*
X565150Y298704D02*
X565150Y285496D01*
X590550Y285496D02*
X590550Y298704D01*
X615950Y298704D02*
X615950Y285496D01*
X641350Y285496D02*
X641350Y298704D01*
X666750Y298704D02*
X666750Y285496D01*
X692150Y285496D02*
X692150Y298704D01*
X717550Y298704D02*
X717550Y285496D01*
X742950Y285496D02*
X742950Y298704D01*
X952500Y361696D02*
X952500Y374904D01*
X927100Y374904D02*
X927100Y361696D01*
X800100Y361696D02*
X800100Y374904D01*
X774700Y374904D02*
X774700Y361696D01*
X901700Y361696D02*
X901700Y374904D01*
X876300Y374904D02*
X876300Y361696D01*
X825500Y361696D02*
X825500Y374904D01*
X850900Y374904D02*
X850900Y361696D01*
X774700Y298704D02*
X774700Y285496D01*
X800100Y285496D02*
X800100Y298704D01*
X825500Y298704D02*
X825500Y285496D01*
X850900Y285496D02*
X850900Y298704D01*
X876300Y298704D02*
X876300Y285496D01*
X901700Y285496D02*
X901700Y298704D01*
X927100Y298704D02*
X927100Y285496D01*
X952500Y285496D02*
X952500Y298704D01*
X368300Y412496D02*
X368300Y425704D01*
X393700Y425704D02*
X393700Y412496D01*
X520700Y412496D02*
X520700Y425704D01*
X546100Y425704D02*
X546100Y412496D01*
X419100Y412496D02*
X419100Y425704D01*
X444500Y425704D02*
X444500Y412496D01*
X495300Y412496D02*
X495300Y425704D01*
X469900Y425704D02*
X469900Y412496D01*
X571500Y412496D02*
X571500Y425704D01*
X596900Y425704D02*
X596900Y412496D01*
X596900Y488696D02*
X596900Y501904D01*
X571500Y501904D02*
X571500Y488696D01*
X546100Y488696D02*
X546100Y501904D01*
X520700Y501904D02*
X520700Y488696D01*
X495300Y488696D02*
X495300Y501904D01*
X469900Y501904D02*
X469900Y488696D01*
X444500Y488696D02*
X444500Y501904D01*
X419100Y501904D02*
X419100Y488696D01*
X393700Y488696D02*
X393700Y501904D01*
X368300Y501904D02*
X368300Y488696D01*
X723900Y425704D02*
X723900Y412496D01*
X749300Y412496D02*
X749300Y425704D01*
X876300Y425704D02*
X876300Y412496D01*
X901700Y412496D02*
X901700Y425704D01*
X774700Y425704D02*
X774700Y412496D01*
X800100Y412496D02*
X800100Y425704D01*
X850900Y425704D02*
X850900Y412496D01*
X825500Y412496D02*
X825500Y425704D01*
X927100Y425704D02*
X927100Y412496D01*
X952500Y412496D02*
X952500Y425704D01*
X952500Y488696D02*
X952500Y501904D01*
X927100Y501904D02*
X927100Y488696D01*
X901700Y488696D02*
X901700Y501904D01*
X876300Y501904D02*
X876300Y488696D01*
X850900Y488696D02*
X850900Y501904D01*
X825500Y501904D02*
X825500Y488696D01*
X800100Y488696D02*
X800100Y501904D01*
X774700Y501904D02*
X774700Y488696D01*
X749300Y488696D02*
X749300Y501904D01*
X723900Y501904D02*
X723900Y488696D01*
X546100Y609346D02*
X546100Y622554D01*
X546100Y546354D02*
X546100Y533146D01*
X571500Y609346D02*
X571500Y622554D01*
X571500Y546354D02*
X571500Y533146D01*
X596900Y609346D02*
X596900Y622554D01*
X596900Y546354D02*
X596900Y533146D01*
X622300Y609346D02*
X622300Y622554D01*
X622300Y546354D02*
X622300Y533146D01*
X647700Y609346D02*
X647700Y622554D01*
X647700Y546354D02*
X647700Y533146D01*
X673100Y609346D02*
X673100Y622554D01*
X673100Y546354D02*
X673100Y533146D01*
X698500Y609346D02*
X698500Y622554D01*
X698500Y546354D02*
X698500Y533146D01*
X723900Y609346D02*
X723900Y622554D01*
X723900Y546354D02*
X723900Y533146D01*
X774700Y609346D02*
X774700Y622554D01*
X774700Y546354D02*
X774700Y533146D01*
X800100Y609346D02*
X800100Y622554D01*
X800100Y546354D02*
X800100Y533146D01*
X825500Y609346D02*
X825500Y622554D01*
X825500Y546354D02*
X825500Y533146D01*
X850900Y609346D02*
X850900Y622554D01*
X850900Y546354D02*
X850900Y533146D01*
X876300Y609346D02*
X876300Y622554D01*
X876300Y546354D02*
X876300Y533146D01*
X901700Y609346D02*
X901700Y622554D01*
X901700Y546354D02*
X901700Y533146D01*
X927100Y609346D02*
X927100Y622554D01*
X927100Y546354D02*
X927100Y533146D01*
X952500Y609346D02*
X952500Y622554D01*
X952500Y546354D02*
X952500Y533146D01*
D12*
X749300Y615950D03*
X749300Y539750D03*
D11*
X774700Y767080D02*
X774700Y782320D01*
X800100Y782320D02*
X800100Y767080D01*
X825500Y767080D02*
X825500Y782320D01*
X850900Y782320D02*
X850900Y767080D01*
X876300Y767080D02*
X876300Y782320D01*
X901700Y782320D02*
X901700Y767080D01*
X927100Y767080D02*
X927100Y782320D01*
D10*
X286004Y482600D02*
X272796Y482600D01*
X272796Y508000D02*
X286004Y508000D01*
X286004Y635000D02*
X272796Y635000D01*
X209804Y635000D02*
X196596Y635000D01*
X272796Y533400D02*
X286004Y533400D01*
X286004Y558800D02*
X272796Y558800D01*
X272796Y609600D02*
X286004Y609600D01*
X286004Y584200D02*
X272796Y584200D01*
X209804Y609600D02*
X196596Y609600D01*
X196596Y584200D02*
X209804Y584200D01*
X209804Y558800D02*
X196596Y558800D01*
X196596Y533400D02*
X209804Y533400D01*
X209804Y508000D02*
X196596Y508000D01*
X196596Y482600D02*
X209804Y482600D01*
X171704Y482600D02*
X158496Y482600D01*
X158496Y508000D02*
X171704Y508000D01*
X171704Y635000D02*
X158496Y635000D01*
X95504Y635000D02*
X82296Y635000D01*
X158496Y533400D02*
X171704Y533400D01*
X171704Y558800D02*
X158496Y558800D01*
X158496Y609600D02*
X171704Y609600D01*
X171704Y584200D02*
X158496Y584200D01*
X95504Y609600D02*
X82296Y609600D01*
X82296Y584200D02*
X95504Y584200D01*
X95504Y558800D02*
X82296Y558800D01*
X82296Y533400D02*
X95504Y533400D01*
X95504Y508000D02*
X82296Y508000D01*
X82296Y482600D02*
X95504Y482600D01*
D13*
X685800Y673100D03*
X609600Y673100D03*
X685800Y698500D03*
X609600Y698500D03*
X279400Y673100D03*
X203200Y673100D03*
X279400Y698500D03*
X203200Y698500D03*
X279400Y723900D03*
X203200Y723900D03*
X279400Y749300D03*
X203200Y749300D03*
D11*
X368300Y242570D02*
X368300Y227330D01*
X393700Y227330D02*
X393700Y242570D01*
X419100Y242570D02*
X419100Y227330D01*
X444500Y227330D02*
X444500Y242570D01*
X469900Y242570D02*
X469900Y227330D01*
X495300Y227330D02*
X495300Y242570D01*
X520700Y242570D02*
X520700Y227330D01*
X546100Y227330D02*
X546100Y242570D01*
X952500Y767080D02*
X952500Y782320D01*
X977900Y782320D02*
X977900Y767080D01*
D12*
X520700Y631825D03*
X520700Y555625D03*
X495300Y631825D03*
X495300Y555625D03*
X469900Y631825D03*
X469900Y555625D03*
X444500Y631825D03*
X444500Y555625D03*
X419100Y631825D03*
X419100Y555625D03*
X393700Y631825D03*
X393700Y555625D03*
X368300Y631825D03*
X368300Y555625D03*
X342900Y631825D03*
X342900Y555625D03*
D13*
X317500Y254000D03*
X292100Y254000D03*
D12*
X676402Y495046D03*
X676402Y469646D03*
X716280Y699262D03*
X716280Y673862D03*
X323342Y496316D03*
X323342Y470916D03*
D13*
X952500Y254000D03*
X927100Y254000D03*
D14*
X927100Y101600D03*
X50800Y749300D03*
X50800Y304800D03*
D15*
X480060Y620268D03*
X807720Y574548D03*
X755904Y626364D03*
X603504Y288036D03*
X480060Y603504D03*
X384048Y262128D03*
X565404Y569976D03*
X350520Y461772D03*
X416052Y390144D03*
X621792Y582168D03*
X495300Y568452D03*
X481584Y333756D03*
X669036Y586740D03*
X539496Y522732D03*
X298704Y662940D03*
X873252Y682752D03*
X911352Y441960D03*
X371856Y330708D03*
X650748Y219456D03*
X861060Y525780D03*
X836676Y382524D03*
X708660Y417576D03*
X733044Y600456D03*
X723900Y638556D03*
X763524Y676656D03*
X891540Y513588D03*
X867156Y707136D03*
X970788Y417576D03*
X644652Y257556D03*
X678180Y257556D03*
X370332Y339852D03*
X894588Y385572D03*
X513588Y448056D03*
X513588Y473964D03*
X784860Y667512D03*
X644652Y720852D03*
X662940Y705612D03*
X781812Y588264D03*
X917448Y685800D03*
X909828Y524256D03*
X792480Y556260D03*
X780288Y566928D03*
X769620Y585216D03*
X807720Y583692D03*
X638556Y737616D03*
X656844Y563880D03*
X882396Y443484D03*
X879348Y518160D03*
X678180Y743712D03*
X405384Y313944D03*
X443484Y352044D03*
X795528Y573024D03*
X577596Y181356D03*
X329184Y227076D03*
X662940Y734568D03*
X601980Y743712D03*
X562356Y755904D03*
X426720Y755904D03*
X376428Y755904D03*
X384048Y542544D03*
X419100Y749808D03*
X585216Y751332D03*
X637032Y751332D03*
X661416Y751332D03*
X300228Y472440D03*
X434340Y477012D03*
X477012Y594360D03*
X902208Y749808D03*
X883920Y755904D03*
X833628Y755904D03*
X766572Y755904D03*
X632460Y396240D03*
X653796Y667512D03*
X964692Y617220D03*
X964692Y598932D03*
X824484Y568452D03*
X714756Y519684D03*
M02*
